<svg width="442" height="386" viewBox="0 0 442 386" fill="none" xmlns="http://www.w3.org/2000/svg">
<path d="M413 376.144C413 376.26 326.806 376.358 220.508 376.358C114.21 376.358 28 376.26 28 376.144C28 376.029 114.177 375.914 220.5 375.914C326.823 375.914 413 376.021 413 376.144Z" fill="#263238"/>
<path d="M218.642 169.935V170.757H215.354V170.107L217.245 167.872H215.404V167.05H218.601V167.699L216.711 169.935H218.642Z" fill="#263238"/>
<path d="M212.618 166.327V168.266H204.884V166.746L209.306 161.519H204.999V159.579H212.486V161.099L208.048 166.327H212.618Z" fill="#263238"/>
<path d="M201.538 161.88V165.784H185.922V162.727L194.84 152.182H186.152V148.245H201.242V151.302L192.333 161.847L201.538 161.88Z" fill="#263238"/>
<path d="M197.487 114.662H185.561V130.007H163.452V114.662H121.049V99.8671L157.016 49.8044H180.506L147.852 96.6534H164.126V83.0426H185.545V96.6781H197.487V114.662Z" fill="#FB887A"/>
<path d="M202.049 89.889C202.049 63.4316 216.942 48.1934 237.449 48.1934C257.955 48.1934 272.733 63.4563 272.733 89.889C272.733 116.322 257.84 131.585 237.449 131.585C217.057 131.585 202.049 116.379 202.049 89.889ZM249.933 89.889C249.933 73.048 244.665 66.7521 237.449 66.7521C230.232 66.7521 224.849 73.048 224.849 89.889C224.849 106.73 230.117 113.034 237.449 113.034C244.78 113.034 249.933 106.755 249.933 89.889Z" fill="#FB887A"/>
<path d="M356.116 114.662H344.198V130.007H322.089V114.662H279.678V99.8671L315.653 49.8044H339.135L306.489 96.6534H322.755V83.0426H344.174V96.6781H356.116V114.662Z" fill="#FB887A"/>
<g opacity="0.3">
<path d="M197.487 114.662H185.561V130.007H163.452V114.662H121.049V99.8671L157.016 49.8044H180.506L147.852 96.6534H164.126V83.0426H185.545V96.6781H197.487V114.662Z" fill="black"/>
<path d="M202.049 89.889C202.049 63.4316 216.942 48.1934 237.449 48.1934C257.955 48.1934 272.733 63.4563 272.733 89.889C272.733 116.322 257.84 131.585 237.449 131.585C217.057 131.585 202.049 116.379 202.049 89.889ZM249.933 89.889C249.933 73.048 244.665 66.7521 237.449 66.7521C230.232 66.7521 224.849 73.048 224.849 89.889C224.849 106.73 230.117 113.034 237.449 113.034C244.78 113.034 249.933 106.755 249.933 89.889Z" fill="black"/>
<path d="M356.117 114.662H344.199V130.007H322.089V114.662H279.679V99.8671L315.654 49.8044H339.136L306.489 96.6534H322.755V83.0426H344.174V96.6781H356.117V114.662Z" fill="black"/>
</g>
<path d="M190.837 114.662H178.92V130.007H156.81V114.662H114.424V99.8671L150.399 49.8044H173.881L141.235 96.6534H157.501V83.0426H178.92V96.6781H190.837V114.662Z" fill="#FB887A"/>
<path d="M195.408 89.889C195.408 63.4316 210.301 48.1934 230.807 48.1934C251.314 48.1934 266.092 63.4563 266.092 89.889C266.092 116.322 251.199 131.585 230.807 131.585C210.416 131.585 195.408 116.379 195.408 89.889ZM243.292 89.889C243.292 73.048 238.024 66.7521 230.807 66.7521C223.591 66.7521 218.208 73.048 218.208 89.889C218.208 106.73 223.476 113.034 230.807 113.034C238.139 113.034 243.292 106.755 243.292 89.889Z" fill="#FB887A"/>
<path d="M349.483 114.662H337.566V130.007H315.456V114.662H273.103V99.8671L309.078 49.8044H332.527L299.881 96.6534H316.147V83.0426H337.566V96.6781H349.483V114.662Z" fill="#FB887A"/>
<path d="M204.711 30.0372C204.711 25.2948 208.435 21.8181 213.481 21.8181C218.528 21.8181 222.259 25.2866 222.259 30.0372C222.259 34.7879 218.536 38.2564 213.481 38.2564C208.426 38.2564 204.711 34.7714 204.711 30.0372ZM217.747 30.0372C217.772 29.4618 217.681 28.8873 217.478 28.3482C217.275 27.8092 216.965 27.3167 216.567 26.9006C216.169 26.4845 215.691 26.1534 215.161 25.9272C214.631 25.7009 214.061 25.5843 213.485 25.5843C212.909 25.5843 212.339 25.7009 211.81 25.9272C211.28 26.1534 210.802 26.4845 210.404 26.9006C210.005 27.3167 209.695 27.8092 209.493 28.3482C209.29 28.8873 209.198 29.4618 209.224 30.0372C209.198 30.6126 209.29 31.1872 209.493 31.7262C209.695 32.2653 210.005 32.7577 210.404 33.1738C210.802 33.5899 211.28 33.9211 211.81 34.1473C212.339 34.3735 212.909 34.4902 213.485 34.4902C214.061 34.4902 214.631 34.3735 215.161 34.1473C215.691 33.9211 216.169 33.5899 216.567 33.1738C216.965 32.7577 217.275 32.2653 217.478 31.7262C217.681 31.1872 217.772 30.6126 217.747 30.0372Z" fill="#263238"/>
<path d="M223.632 31.7963C223.632 28.1142 226.541 25.5005 230.536 25.5005C234.53 25.5005 237.432 28.1142 237.432 31.7963C237.432 35.4785 234.571 38.1251 230.536 38.1251C226.5 38.1251 223.632 35.4867 223.632 31.7963ZM233.1 31.7963C233.1 29.947 231.999 28.9032 230.536 28.9032C229.073 28.9032 227.963 29.947 227.963 31.7963C227.963 33.6456 229.089 34.7223 230.536 34.7223C231.982 34.7223 233.1 33.6621 233.1 31.7963Z" fill="#263238"/>
<path d="M253.106 31.8127C253.106 35.6922 250.426 38.125 247.106 38.125C246.481 38.156 245.856 38.0582 245.271 37.8376C244.686 37.6171 244.152 37.2785 243.703 36.8428V42.3003H239.404V25.7059H243.514V26.9224C243.968 26.4268 244.529 26.0411 245.154 25.7947C245.779 25.5484 246.452 25.4477 247.122 25.5005C250.426 25.5005 253.106 27.9333 253.106 31.8127ZM248.774 31.8127C248.774 29.9634 247.648 28.9032 246.21 28.9032C244.771 28.9032 243.637 29.9634 243.637 31.8127C243.637 33.662 244.763 34.7223 246.21 34.7223C247.656 34.7223 248.774 33.662 248.774 31.8127Z" fill="#263238"/>
<path d="M254.125 36.8672L255.407 33.933C256.707 34.6733 258.177 35.0615 259.673 35.059C261.111 35.059 261.588 34.7466 261.588 34.2371C261.588 32.5932 254.372 34.459 254.372 29.5686C254.372 27.2672 256.492 25.5084 260.322 25.5084C261.989 25.4742 263.641 25.8288 265.147 26.544L263.865 29.4535C262.789 28.8558 261.578 28.5445 260.347 28.5494C258.9 28.5494 258.382 28.9604 258.382 29.3713C258.382 31.0563 265.574 29.2316 265.574 34.0809C265.574 36.3329 263.503 38.0918 259.533 38.0918C257.657 38.1412 255.797 37.7202 254.125 36.8672Z" fill="#263238"/>
<path d="M266.889 35.7578C266.952 35.1221 267.248 34.5324 267.722 34.1034C268.195 33.6743 268.811 33.4367 269.449 33.4367C270.088 33.4367 270.704 33.6743 271.177 34.1034C271.651 34.5324 271.947 35.1221 272.01 35.7578C271.973 36.4117 271.687 37.0267 271.211 37.4765C270.735 37.9264 270.104 38.177 269.449 38.177C268.794 38.177 268.164 37.9264 267.688 37.4765C267.212 37.0267 266.926 36.4117 266.889 35.7578ZM266.889 22.1387H271.985L271.122 32.1742H267.719L266.889 22.1387Z" fill="#263238"/>
<path d="M128.857 300.586H118.715V349.301H128.857V300.586Z" fill="#E0E0E0"/>
<path d="M87.5063 294.315C87.6707 294.315 118.739 304.054 118.739 304.054H128.873L164.454 294.315H87.5063Z" fill="#E0E0E0"/>
<path d="M59.1588 130.927C54.663 131.938 50.6438 136.089 51.3178 144.373C51.3178 144.373 47.7343 145.047 47.9562 151.549C48.1781 158.05 47.5124 198.398 55.5753 220.343C62.2081 238.384 73.6574 276.972 77.5532 290.148C77.9382 291.451 78.7347 292.595 79.8236 293.408C80.9124 294.222 82.2352 294.661 83.5943 294.66H171.309C172.854 294.655 174.382 294.338 175.802 293.729C177.222 293.12 178.505 292.232 179.574 291.117C180.643 290.001 181.477 288.682 182.025 287.238C182.574 285.793 182.826 284.253 182.766 282.709C182.632 279.735 181.351 276.929 179.192 274.88C177.032 272.831 174.162 271.698 171.185 271.72L107.224 272.386C107.224 272.386 103.304 251.263 99.2681 251.016C99.2681 251.016 101.06 237.792 94.3367 233.986C94.3367 233.986 95.6764 217.663 88.5093 216.192C88.5093 216.192 89.6271 202.532 83.5779 200.107C83.5779 200.107 86.9395 187.82 80.6683 181.548C80.6683 181.548 82.4601 167.206 80.6683 156.447C78.8765 145.688 78.219 126.678 59.1588 130.927Z" fill="#455A64"/>
<path d="M175.804 284.041C175.804 284.041 175.657 284.041 175.361 284.041H174.062L169.024 284.082L150.243 284.14L85.9777 284.214H85.8298L85.7805 284.074L76.7394 257.855C71.4874 242.493 66.5148 227.847 62.134 214.483C61.0409 211.137 59.9889 207.907 59.0026 204.685C58.4917 203.121 58.0691 201.53 57.7368 199.918C57.5674 199.131 57.4412 198.336 57.3587 197.535C57.2683 196.713 57.1286 195.957 57.0793 195.176C56.5122 188.938 56.3807 183.102 56.2574 177.784C56.1177 167.149 56.2574 158.535 56.4053 152.593C56.4875 149.626 56.5533 147.324 56.5944 145.746L56.6683 143.963C56.6683 143.56 56.7094 143.363 56.7094 143.363C56.7094 143.363 56.7094 143.568 56.7094 143.963C56.7094 144.357 56.7094 144.974 56.7094 145.746C56.7094 147.324 56.6437 149.634 56.5944 152.593C56.5122 158.543 56.4053 167.149 56.5944 177.784C56.7094 183.094 56.8574 188.921 57.4163 195.143C57.4738 195.965 57.6053 196.696 57.6957 197.485C57.7804 198.278 57.9093 199.066 58.082 199.844C58.4313 201.457 58.8731 203.049 59.4053 204.611C60.3916 207.792 61.4519 211.047 62.5532 214.392C66.9505 227.748 71.9395 242.387 77.1833 257.748C80.3065 266.789 83.3312 275.649 86.2243 283.975L86.027 283.836L150.292 283.909L169.073 283.967H174.111H175.41C175.657 284.025 175.804 284.041 175.804 284.041Z" fill="#263238"/>
<path d="M97.6822 272.485C97.433 272.75 97.1576 272.99 96.8603 273.2C96.3096 273.636 95.5288 274.293 94.5918 275.115C92.1461 277.27 89.8709 279.611 87.7864 282.118C85.7038 284.624 83.8083 287.281 82.1152 290.066C81.4659 291.134 80.9563 292.014 80.6193 292.63C80.4591 292.958 80.2664 293.269 80.0439 293.559C80.1515 293.211 80.2947 292.875 80.4713 292.556C80.7672 291.915 81.2357 291.011 81.8521 289.918C83.4802 287.065 85.3559 284.362 87.4576 281.838C89.5515 279.312 91.8736 276.985 94.3945 274.885C95.3644 274.063 96.1781 273.463 96.7534 273.068C97.0412 272.841 97.3526 272.646 97.6822 272.485Z" fill="#263238"/>
<path d="M107.225 272.353C107.225 272.353 107.011 272.353 106.592 272.353L104.751 272.403L97.6822 272.518H97.5918V272.427L97.4438 271.556C97.3551 271.275 97.248 271.001 97.1233 270.734C96.8331 270.158 96.3285 269.718 95.7178 269.51C94.2864 269.201 92.7913 269.438 91.526 270.175L91.2302 270.315L91.337 270.011C92.329 267.111 92.4715 263.989 91.748 261.011C90.933 257.497 88.9726 254.354 86.1754 252.077L86.0686 251.995L86.1179 251.871C87.0005 249.363 87.1202 246.65 86.4619 244.074C85.8036 241.498 84.3969 239.175 82.4193 237.397L82.3124 237.315L82.3617 237.184C83.4301 233.72 83.3688 230.006 82.1867 226.58C81.0047 223.153 78.7631 220.192 75.7864 218.124L75.6878 218.058V217.943C75.7538 215.675 75.6825 213.405 75.4741 211.146C75.2783 208.835 74.8515 206.549 74.2001 204.324C73.5262 202.17 72.507 200.017 70.707 198.768L70.5755 198.677L70.6248 198.529C71.5782 195.227 71.9536 191.784 71.7344 188.354C71.6047 186.726 71.2564 185.122 70.6988 183.587C70.1257 182.11 69.2904 180.748 68.2331 179.568L68.1344 179.453L68.2084 179.329C70.011 176.467 70.9998 173.169 71.0687 169.787C71.082 166.734 70.0882 163.761 68.2413 161.33V161.28V161.223C68.3423 157.164 67.5246 153.135 65.8495 149.436C65.1315 147.939 64.1 146.613 62.8249 145.549C61.7372 144.673 60.4636 144.057 59.1016 143.749C58.006 143.513 56.8823 143.436 55.7647 143.519L54.4249 143.667L53.3236 143.889C52.6661 144.012 52.1811 144.193 51.8524 144.267C51.5236 144.341 51.3428 144.39 51.3428 144.39C51.9842 144.159 52.6371 143.961 53.2989 143.798L54.4003 143.552L55.7564 143.379C56.8861 143.28 58.0241 143.346 59.1345 143.576C60.534 143.87 61.8455 144.486 62.9646 145.376C64.2757 146.451 65.3384 147.797 66.0797 149.321C67.7944 153.053 68.6376 157.125 68.5454 161.231V161.132C70.4484 163.616 71.4771 166.658 71.4714 169.787C71.4119 173.242 70.4116 176.615 68.5783 179.543V179.305C69.6677 180.512 70.5333 181.903 71.1344 183.414C71.7143 185.002 72.0738 186.661 72.2029 188.346C72.4383 191.831 72.0628 195.33 71.0933 198.685L70.9125 198.381C72.8604 199.737 73.8878 201.973 74.5782 204.135C75.2481 206.385 75.6833 208.699 75.8768 211.039C76.0867 213.317 76.1553 215.607 76.0823 217.893L75.9919 217.704C79.0491 219.821 81.3517 222.858 82.5652 226.372C83.7787 229.887 83.8399 233.698 82.7398 237.25L82.6823 237.028C84.719 238.865 86.1618 241.268 86.8264 243.93C87.491 246.591 87.3474 249.391 86.4138 251.97L86.3562 251.764C89.212 254.091 91.2034 257.31 92.011 260.904C92.738 263.941 92.5754 267.122 91.5425 270.068L91.3617 269.904C92.0619 269.559 92.8056 269.31 93.5726 269.164C94.2968 269.004 95.0504 269.035 95.7589 269.255C96.1022 269.379 96.4164 269.572 96.6822 269.822C96.9479 270.072 97.1596 270.374 97.3041 270.71C97.4353 271.003 97.5452 271.305 97.6329 271.614L97.7808 272.518L97.6822 272.427H104.751H106.592L107.225 272.353Z" fill="#263238"/>
<g opacity="0.3">
<path d="M95.4874 233.724L66.1533 237.504C66.5948 238.284 67.21 238.951 67.9512 239.455C68.6925 239.958 69.5398 240.283 70.4273 240.406C72.2011 240.629 73.998 240.593 75.7615 240.299C83.3563 239.475 91.0008 239.2 98.6353 239.477C97.7799 237.459 96.7254 235.532 95.4874 233.724Z" fill="black"/>
</g>
<path d="M80.9886 179.962C78.9669 180.227 76.9287 180.345 74.89 180.316C72.8548 180.424 70.8147 180.397 68.7832 180.233C70.8049 179.969 72.8431 179.851 74.8818 179.88C76.9169 179.771 78.9571 179.798 80.9886 179.962Z" fill="#263238"/>
<path d="M80.7173 368.517C80.7173 368.517 85.4104 354.199 91.8788 350.731C102.268 345.166 126.227 342.512 126.227 342.512L128.848 349.284C128.848 349.284 96.9007 350.542 91.8624 356.986C88.9895 360.679 86.3119 364.519 83.8406 368.492L80.7173 368.517Z" fill="#E0E0E0"/>
<path d="M84.8106 376.12C88.5555 376.12 91.5913 373.084 91.5913 369.339C91.5913 365.594 88.5555 362.558 84.8106 362.558C81.0656 362.558 78.0298 365.594 78.0298 369.339C78.0298 373.084 81.0656 376.12 84.8106 376.12Z" fill="#263238"/>
<path d="M167.306 368.262C167.306 368.262 162.613 353.944 156.144 350.476C145.755 344.912 121.805 342.257 121.805 342.257L119.175 349.029C119.175 349.029 151.123 350.287 156.161 356.739C159.035 360.431 161.713 364.272 164.183 368.246L167.306 368.262Z" fill="#E0E0E0"/>
<path d="M164.914 376.12C168.659 376.12 171.695 373.084 171.695 369.339C171.695 365.594 168.659 362.558 164.914 362.558C161.169 362.558 158.133 365.594 158.133 369.339C158.133 373.084 161.169 376.12 164.914 376.12Z" fill="#263238"/>
<path d="M120.284 346.161L121.772 364.588L125.964 365.418V346.161" fill="#E0E0E0"/>
<path d="M123.777 376.12C127.522 376.12 130.558 373.084 130.558 369.339C130.558 365.594 127.522 362.558 123.777 362.558C120.032 362.558 116.997 365.594 116.997 369.339C116.997 373.084 120.032 376.12 123.777 376.12Z" fill="#263238"/>
<path d="M73.3779 201.866C75.0068 201.314 76.6781 200.896 78.3752 200.617C80.0454 200.203 81.7471 199.928 83.4628 199.795C81.8343 200.348 80.1629 200.766 78.4656 201.044C76.7951 201.457 75.0935 201.732 73.3779 201.866Z" fill="#263238"/>
<path d="M87.9091 216.208C87.3733 216.461 86.8069 216.644 86.2242 216.751C85.1639 217.022 83.6927 217.334 82.0489 217.573C80.405 217.811 78.9092 217.984 77.8242 218.05C77.2378 218.128 76.6435 218.128 76.0571 218.05C76.0571 217.926 78.7201 217.671 81.9831 217.154C85.2461 216.636 87.8762 216.093 87.9091 216.208Z" fill="#263238"/>
<path d="M100.024 251.732C99.3863 251.909 98.7294 252.008 98.0678 252.027C96.8514 252.151 95.1665 252.258 93.3007 252.315C91.435 252.373 89.7501 252.315 88.5254 252.315C87.8654 252.332 87.2058 252.268 86.561 252.126C87.2131 252.022 87.8739 251.984 88.5336 252.011L93.2925 251.904L98.0431 251.74C98.7015 251.671 99.3651 251.668 100.024 251.732Z" fill="#263238"/>
<path d="M103.435 264.603C103.435 264.734 100.706 265.326 97.5254 266.682C94.3446 268.038 91.9939 269.584 91.9199 269.477C92.3541 269.032 92.8529 268.655 93.3994 268.359C94.6609 267.561 95.9859 266.868 97.361 266.288C98.7328 265.703 100.152 265.236 101.602 264.89C102.198 264.714 102.814 264.618 103.435 264.603Z" fill="#263238"/>
<path d="M158.273 294.816C158.273 294.931 142.106 294.997 122.167 294.948C102.227 294.898 86.0518 294.783 86.0518 294.66C86.0518 294.537 102.219 294.479 122.167 294.52C142.114 294.561 158.273 294.693 158.273 294.816Z" fill="#263238"/>
<path d="M128.347 304.408C126.749 304.624 125.134 304.696 123.523 304.622C121.909 304.696 120.291 304.624 118.69 304.408C120.292 304.197 121.909 304.125 123.523 304.194C125.134 304.125 126.748 304.197 128.347 304.408Z" fill="#263238"/>
<path d="M128.807 343.679C127.324 344.514 125.659 344.974 123.957 345.019C122.255 345.063 120.568 344.691 119.043 343.934C120.656 344.344 122.311 344.565 123.974 344.591C125.615 344.474 127.237 344.168 128.807 343.679Z" fill="#263238"/>
<path d="M228.653 191.42C228.653 191.42 224.79 185.494 222.555 183.472C220.829 181.918 212.453 178.836 208.689 177.497C207.482 177.07 206.213 176.848 204.933 176.839C200.001 176.79 186.966 176.839 180.325 178.023C172.048 179.535 226.96 222.718 226.96 222.718L272.7 222.825L275.691 211.532L245.157 205.228L228.308 191.864" fill="#E0E0E0"/>
<g opacity="0.3">
<path d="M192.966 179.584C192.966 179.584 195.991 179.732 200.207 180.406C204.424 181.08 209.051 181.294 211.369 183.348C212.922 184.721 222.424 184.992 222.424 184.992L209.273 184.507L192.966 179.584Z" fill="black"/>
</g>
<path d="M188.626 178.499C188.903 178.495 189.18 178.528 189.448 178.598C189.982 178.696 190.763 178.853 191.708 179.091C193.607 179.559 196.204 180.283 199.056 181.137L202.204 182.115H202.155C204.299 182.211 206.429 182.511 208.516 183.011C208.69 183.333 208.823 183.676 208.911 184.031C208.691 183.739 208.504 183.425 208.352 183.094L208.401 183.143C206.31 182.791 204.199 182.569 202.081 182.477H202.031L198.875 181.524L191.577 179.362L189.357 178.729C189.105 178.683 188.859 178.606 188.626 178.499Z" fill="#263238"/>
<path d="M308.116 222.398C308.182 222.052 307.212 218.115 307.113 217.721C307.015 217.326 304.007 212.789 304.007 212.789L302.363 212.288C302.363 212.288 294.719 210.472 293.174 210.579L292.097 210.694C292.097 210.694 290.092 210.842 289.302 210.981C288.513 211.121 283.623 212.839 283.623 212.839C282.424 213.093 281.197 213.184 279.974 213.11C278.287 212.837 276.617 212.474 274.968 212.025L273.012 222.792L276.711 222.677C277.865 223.087 279.057 223.381 280.27 223.557C281.601 223.647 285.374 224.058 285.374 224.058C285.374 224.058 291.201 226.524 292.664 223.088C294.127 219.652 288.505 219.299 288.505 219.299L290.248 218.066L294.711 217.606L295.87 217.976L297.144 219.948C297.144 219.948 296.798 224.304 299.609 224.009L300.349 223.926L300.744 219.455L299.412 214.935L302.354 219.398C302.354 219.398 302.609 223.261 303.883 223.762C303.981 223.806 304.088 223.826 304.196 223.82C305.741 223.77 306.045 223.335 306.045 223.335L306.365 222.554C306.365 222.554 307.894 223.573 308.116 222.398Z" fill="#FFBF9D"/>
<path d="M291.406 210.71C291.872 210.642 292.346 210.662 292.804 210.768C293.932 210.92 295.037 211.216 296.091 211.647C297.166 212.061 298.119 212.739 298.861 213.62C299.189 213.972 299.401 214.417 299.469 214.894C299.395 214.894 299.19 214.425 298.648 213.817C297.88 213.039 296.955 212.433 295.935 212.041C293.519 211.08 291.382 210.866 291.406 210.71Z" fill="#FF9A6C"/>
<path d="M294.283 215.411C294.398 215.411 294.48 215.88 294.538 216.439C294.595 216.998 294.612 217.474 294.497 217.507C294.382 217.54 294.176 217.08 294.11 216.488C294.045 215.896 294.16 215.403 294.283 215.411Z" fill="#FF9A6C"/>
<path d="M291.406 215.559C291.497 215.477 292.31 216.381 293.609 217.006C294.908 217.63 296.075 217.828 296.075 217.926C295.148 218.059 294.205 217.867 293.404 217.384C292.544 217.029 291.837 216.383 291.406 215.559Z" fill="#FF9A6C"/>
<path d="M282.086 215.962C282.499 215.997 282.895 216.139 283.237 216.373C284.112 216.854 284.863 217.532 285.431 218.354C285.607 218.617 285.766 218.892 285.908 219.176L285.686 219.061C286.756 218.846 287.865 218.94 288.883 219.332C287.837 219.316 286.792 219.363 285.752 219.471H285.604L285.53 219.34C285.395 219.076 285.244 218.821 285.078 218.576C284.255 217.523 283.24 216.636 282.086 215.962Z" fill="#FF9A6C"/>
<path d="M302.527 212.247C302.964 212.596 303.339 213.015 303.637 213.488C304.423 214.582 305.059 215.776 305.527 217.039C306 218.302 306.296 219.624 306.407 220.967C306.501 221.511 306.501 222.067 306.407 222.611C306.154 220.764 305.736 218.943 305.157 217.17C304.429 215.454 303.548 213.807 302.527 212.247Z" fill="#FF9A6C"/>
<path d="M229.722 341.213L228.9 363.454C228.9 363.454 251.199 371.805 251.446 375.914L208.262 375.824L208.172 341.106L229.722 341.213Z" fill="#455A64"/>
<path d="M215.568 361.556C215.153 361.68 214.799 361.954 214.575 362.324C214.35 362.695 214.271 363.135 214.352 363.561C214.459 363.982 214.725 364.346 215.094 364.576C215.464 364.805 215.907 364.884 216.333 364.794C216.773 364.66 217.148 364.367 217.385 363.972C217.622 363.577 217.704 363.109 217.615 362.657C217.454 362.232 217.135 361.885 216.724 361.689C216.314 361.493 215.844 361.463 215.412 361.605" fill="#E0E0E0"/>
<path d="M208.262 375.816L208.393 372.314L249.744 373.711C249.744 373.711 251.659 374.533 251.445 375.906L208.262 375.816Z" fill="#263238"/>
<path d="M229.582 363.232C229.582 363.446 228.514 363.536 227.478 364.21C226.443 364.884 225.884 365.772 225.686 365.69C225.489 365.607 225.81 364.391 227.084 363.594C228.358 362.796 229.623 363.043 229.582 363.232Z" fill="white"/>
<path d="M234.103 365.114C234.152 365.32 233.24 365.673 232.516 366.569C231.793 367.465 231.596 368.402 231.382 368.394C231.168 368.386 231.037 367.186 231.957 366.101C232.878 365.016 234.103 364.917 234.103 365.114Z" fill="white"/>
<path d="M236.667 370.539C236.47 370.588 236.182 369.536 236.725 368.377C237.267 367.218 238.253 366.733 238.368 366.947C238.483 367.161 237.842 367.769 237.415 368.69C236.988 369.61 236.873 370.522 236.667 370.539Z" fill="white"/>
<path d="M229.212 358.144C229.122 358.333 228.152 358.046 226.96 358.144C225.768 358.243 224.84 358.596 224.733 358.416C224.626 358.235 225.514 357.487 226.919 357.413C228.325 357.339 229.311 357.98 229.212 358.144Z" fill="white"/>
<path d="M195.111 338.928L181.139 356.188C181.139 356.188 193.977 376.243 191.733 379.695L157.213 353.723L177.933 325.885L195.111 338.928Z" fill="#455A64"/>
<path d="M171.564 346.671C171.155 346.525 170.707 346.533 170.304 346.695C169.901 346.857 169.571 347.162 169.377 347.55C169.212 347.948 169.206 348.395 169.358 348.798C169.511 349.201 169.812 349.531 170.199 349.72C170.632 349.876 171.107 349.867 171.534 349.694C171.96 349.521 172.307 349.196 172.509 348.783C172.636 348.346 172.589 347.877 172.378 347.473C172.166 347.07 171.807 346.765 171.375 346.621" fill="#E0E0E0"/>
<path d="M157.213 353.723L159.407 351.002L191.667 376.909C191.667 376.909 192.703 378.734 191.717 379.687L157.213 353.723Z" fill="#263238"/>
<path d="M181.796 356.443C181.665 356.608 180.761 356.049 179.528 355.966C178.295 355.884 177.317 356.262 177.21 356.073C177.103 355.884 178.089 355.112 179.585 355.251C181.081 355.391 181.952 356.312 181.796 356.443Z" fill="white"/>
<path d="M184.287 360.66C184.204 360.857 183.259 360.594 182.15 360.873C181.04 361.153 180.309 361.786 180.144 361.654C179.98 361.523 180.596 360.487 181.977 360.158C183.358 359.83 184.41 360.495 184.287 360.66Z" fill="white"/>
<path d="M183.087 366.536C182.906 366.462 183.301 365.443 184.435 364.843C185.569 364.243 186.621 364.473 186.588 364.671C186.555 364.868 185.692 364.983 184.78 365.492C183.868 366.002 183.268 366.651 183.087 366.536Z" fill="white"/>
<path d="M184.549 352.145C184.368 352.243 183.769 351.43 182.766 350.78C181.763 350.131 180.793 349.868 180.818 349.663C180.843 349.457 182.001 349.383 183.177 350.172C184.352 350.961 184.73 352.079 184.549 352.145Z" fill="white"/>
<path d="M227.495 185.453C231.679 184.338 235.953 183.587 240.267 183.209C244.603 182.839 248.964 183.55 252.957 185.28C253.549 185.551 257.511 187.836 257.388 188.477C257.305 188.938 253.566 187.433 253.146 187.655C249.103 189.587 244.418 189.825 239.996 189.102C235.708 188.36 231.515 187.144 227.495 185.477" fill="#263238"/>
<path d="M205.147 183.809L243.99 186.365C254.84 186.899 263.568 193.647 262.738 204.447L262.607 205.442C261.951 210.275 259.5 214.685 255.742 217.795C251.984 220.905 247.193 222.486 242.322 222.225C232.919 221.707 222.538 221.025 217.566 220.285C207.251 218.789 207.054 208.244 207.054 208.244C207.054 208.244 206.133 208.129 203.092 207.85L193.229 200.74L205.147 183.809Z" fill="#FFBF9D"/>
<path d="M207.053 208.244C207.708 203.476 209.719 198.997 212.848 195.34C212.848 195.34 204.629 197.527 204.177 207.948L207.053 208.244Z" fill="#FF9A6C"/>
<path d="M235.007 212.88C235.22 213.044 234.53 214.269 234.735 215.855C234.941 217.442 235.886 218.502 235.714 218.699C235.541 218.896 235.27 218.658 234.834 218.198C234.271 217.57 233.915 216.783 233.815 215.946C233.706 215.118 233.864 214.277 234.267 213.546C234.579 213.012 234.908 212.806 235.007 212.88Z" fill="#263238"/>
<path d="M236.157 198.694C236.347 198.883 235.5 200 235.475 201.603C235.451 203.206 236.24 204.389 236.034 204.554C235.952 204.644 235.607 204.447 235.212 203.929C234.745 203.229 234.504 202.403 234.522 201.562C234.542 200.724 234.83 199.915 235.344 199.253C235.722 198.768 236.116 198.603 236.157 198.694Z" fill="#263238"/>
<path d="M226.837 207.875C226.982 208.746 227.021 209.632 226.952 210.513C226.952 210.924 226.952 211.335 227.232 211.425C227.646 211.518 228.08 211.481 228.473 211.318L231.719 210.538C236.338 209.469 240.111 208.754 240.152 208.943C240.193 209.132 236.486 210.143 231.867 211.211L228.58 211.943C228.049 212.138 227.466 212.138 226.936 211.943C226.8 211.865 226.685 211.757 226.598 211.627C226.511 211.498 226.455 211.35 226.434 211.195C226.405 210.963 226.405 210.728 226.434 210.496C226.456 209.609 226.591 208.728 226.837 207.875Z" fill="#263238"/>
<path d="M244.689 205.022C244.319 204.751 244.952 203.272 245.248 201.398C245.544 199.524 245.462 197.929 245.905 197.798C246.111 197.74 246.44 198.11 246.678 198.809C246.952 199.737 247.011 200.715 246.85 201.669C246.689 202.624 246.313 203.529 245.749 204.315C245.297 204.907 244.87 205.145 244.689 205.022Z" fill="#263238"/>
<path d="M242.692 220.146C242.371 219.767 242.906 218.502 243.111 216.965C243.317 215.428 243.21 214.063 243.629 213.809C243.826 213.694 244.163 213.948 244.451 214.565C244.781 215.409 244.877 216.326 244.73 217.22C244.621 218.12 244.266 218.974 243.703 219.685C243.267 220.178 242.873 220.31 242.692 220.146Z" fill="#263238"/>
<path d="M236.231 186.176C236.33 186.012 239.289 179.362 232.204 178.631C225.119 177.899 225.842 185.206 226.04 185.206C226.237 185.206 236.231 186.176 236.231 186.176Z" fill="#FFBF9D"/>
<path d="M228.949 183.316C228.949 183.316 228.875 183.184 228.801 182.962C228.71 182.656 228.739 182.327 228.883 182.042C229.237 181.318 230.486 180.809 231.768 180.907C232.378 180.952 232.971 181.131 233.503 181.433C233.711 181.528 233.893 181.67 234.036 181.849C234.179 182.027 234.278 182.237 234.324 182.461C234.346 182.608 234.317 182.758 234.24 182.885C234.164 183.013 234.045 183.11 233.905 183.159C233.7 183.233 233.56 183.159 233.544 183.209C233.527 183.258 233.65 183.373 233.946 183.348C234.127 183.324 234.295 183.24 234.423 183.11C234.589 182.929 234.678 182.69 234.67 182.444C234.643 182.148 234.541 181.864 234.372 181.619C234.204 181.375 233.975 181.178 233.708 181.047C233.127 180.678 232.463 180.46 231.776 180.414C230.338 180.307 228.924 180.899 228.53 181.894C228.454 182.078 228.42 182.277 228.432 182.477C228.443 182.676 228.499 182.87 228.596 183.044C228.785 183.283 228.941 183.34 228.949 183.316Z" fill="#FF9A6C"/>
<path d="M254.503 218.773C255.029 219.981 259.073 216.882 260.626 214.187C262.96 210.077 264.736 203.699 264.021 199.663C263.125 194.798 261.144 190.622 257.059 187.861C252.882 185.154 248.059 183.608 243.087 183.381C241.584 183.181 240.054 183.385 238.657 183.973C237.013 184.795 235.829 186.628 233.668 186.34C233.278 186.276 232.88 186.29 232.496 186.381C232.112 186.473 231.75 186.641 231.432 186.874C229.928 188.042 231.078 189.751 232.311 190.606C234.941 192.422 238.246 192.916 241.418 193.351C243.656 193.783 245.949 193.847 248.207 193.54C249.424 193.302 250.591 192.85 251.815 192.718C252.424 192.593 253.052 192.602 253.656 192.744C254.261 192.886 254.828 193.157 255.317 193.54C255.51 193.736 255.686 193.948 255.843 194.173C256.612 195.244 257.083 196.5 257.207 197.813C257.332 199.126 257.105 200.448 256.55 201.644C254.758 205.507 252.004 212.132 253.188 214.047C254.897 216.792 256.114 217.524 256.114 217.524L254.503 218.773Z" fill="#263238"/>
<path d="M236.355 182.716C236.222 181.876 235.855 181.091 235.297 180.45C234.739 179.809 234.012 179.338 233.199 179.091C233.199 179.033 233.519 179 234.021 179.132C234.658 179.309 235.23 179.669 235.664 180.168C236.101 180.66 236.386 181.268 236.486 181.918C236.486 182.411 236.412 182.716 236.355 182.716Z" fill="white"/>
<path d="M223.361 204.192C223.202 203.82 222.911 203.519 222.544 203.347C222.177 203.176 221.759 203.146 221.372 203.264L221.577 203.173C221.215 203.124 220.848 203.201 220.537 203.391C220.225 203.581 219.989 203.873 219.867 204.217C219.762 204.566 219.762 204.939 219.868 205.288C219.973 205.638 220.179 205.948 220.459 206.181C220.772 206.435 221.157 206.584 221.559 206.609C221.961 206.634 222.361 206.534 222.703 206.321C223.036 206.092 223.281 205.757 223.401 205.371C223.52 204.985 223.506 204.569 223.361 204.192Z" fill="#FF9A6C"/>
<path d="M222.965 206.025C223.203 205.745 223.334 205.39 223.335 205.022C223.367 204.639 223.29 204.254 223.113 203.913C222.791 203.58 222.352 203.385 221.889 203.37C221.426 203.299 220.953 203.398 220.557 203.65C220.398 203.75 220.261 203.882 220.154 204.037C220.048 204.193 219.976 204.369 219.941 204.554C219.909 204.916 219.986 205.28 220.163 205.598C220.163 205.598 220.031 205.598 219.892 205.4C219.708 205.145 219.618 204.835 219.637 204.521C219.659 204.284 219.732 204.055 219.851 203.849C219.97 203.644 220.133 203.466 220.327 203.329C220.804 202.991 221.394 202.853 221.971 202.943C222.26 202.955 222.543 203.028 222.801 203.159C223.059 203.289 223.286 203.473 223.467 203.699C223.683 204.113 223.753 204.588 223.664 205.047C223.637 205.353 223.51 205.642 223.302 205.869C223.081 206.033 222.965 206.05 222.965 206.025Z" fill="#263238"/>
<g opacity="0.1">
<path d="M263.191 197.765C262.063 194.121 259.863 190.901 256.878 188.526C253.892 186.151 250.261 184.73 246.456 184.45L243.596 184.318C243.099 184.252 242.593 184.299 242.117 184.458C241.88 184.543 241.678 184.705 241.544 184.918C241.41 185.131 241.351 185.383 241.377 185.634C241.5 186.192 242.117 186.455 242.667 186.603C245.955 187.483 249.407 187.318 252.588 188.436C255.631 189.507 258.159 191.685 259.667 194.537C261.175 197.389 261.553 200.704 260.725 203.822C260.561 204.286 260.489 204.778 260.511 205.269C260.526 205.516 260.623 205.75 260.787 205.935C260.951 206.12 261.172 206.244 261.415 206.288C261.643 206.27 261.863 206.197 262.056 206.075C262.249 205.954 262.41 205.787 262.525 205.59C264.16 203.411 263.996 200.362 263.191 197.765Z" fill="white"/>
</g>
<path d="M234.424 204.718C234.424 204.768 234.054 204.776 233.536 204.537C232.853 204.215 232.31 203.656 232.008 202.963C231.706 202.271 231.665 201.493 231.892 200.773C232.073 200.231 232.328 199.951 232.369 200C232.41 200.05 232.278 200.337 232.188 200.822C232.06 201.478 232.134 202.157 232.401 202.769C232.668 203.382 233.116 203.898 233.684 204.25C234.119 204.554 234.473 204.652 234.424 204.718Z" fill="#FF9A6C"/>
<path d="M232.377 218.222C232.024 217.543 231.906 216.767 232.039 216.013C232.173 215.26 232.552 214.572 233.116 214.055C233.223 214.137 232.656 214.935 232.459 216.094C232.262 217.252 232.5 218.189 232.377 218.222Z" fill="#FF9A6C"/>
<path d="M157.213 245.485C157.706 245.304 192.555 247.006 203.865 248C215.174 248.995 234.777 254.329 235.747 267.644C236.568 278.329 236.379 352.794 236.379 352.794H205.969L205.245 274.096L158.01 262.178L157.213 245.485Z" fill="#263238"/>
<g opacity="0.3">
<path d="M182.191 250.499C182.191 250.499 199.122 253.556 212.643 257.394C226.163 261.233 232.13 269.444 234.103 274.334C236.075 279.224 237.012 286.531 232.862 293.386C230.24 297.726 217.098 312.997 217.098 312.997C217.098 312.997 214.385 269.172 214.254 268.507C214.122 267.841 182.191 250.499 182.191 250.499Z" fill="black"/>
</g>
<path d="M232.615 279.315C231.185 270.866 221.618 264.956 209.889 260.559C198.333 256.211 168.095 245.469 168.095 245.469L160.854 243.685H157.616L156.547 240.48C156.547 240.48 135.999 234.537 106.32 245.485L105.309 246.307C105.309 246.307 104.413 267.956 108.597 272.608C108.597 272.608 155.873 271.942 158.355 272.148C160.837 272.353 195.506 288.085 195.506 288.085L165.826 333.611L190.369 350.756C190.369 350.756 205.163 329.665 214.204 317.057C227.116 298.959 234.308 289.293 232.615 279.315Z" fill="#263238"/>
<path d="M232.615 279.315C232.615 279.315 232.689 279.824 232.812 280.819C232.938 282.291 232.883 283.774 232.648 285.233C232.235 287.595 231.508 289.892 230.486 292.063C229.115 295.01 227.536 297.855 225.76 300.578C221.832 306.767 216.506 313.934 210.596 322.383L190.508 350.854L190.41 350.994L190.27 350.895L165.72 333.767L165.572 333.66L165.67 333.504C174.752 319.572 184.772 304.178 195.333 287.97L195.415 288.274C188.84 285.293 182.095 282.279 175.18 279.233C171.728 277.729 168.251 276.216 164.725 274.745C162.958 274.03 161.191 273.274 159.383 272.649C159.165 272.57 158.943 272.504 158.717 272.452C158.498 272.377 158.266 272.343 158.035 272.353C157.566 272.353 157.081 272.353 156.605 272.353H153.703C138.21 272.436 123.103 272.649 108.605 272.838H108.506L108.441 272.773C107.716 271.844 107.18 270.783 106.862 269.649C106.514 268.554 106.239 267.436 106.041 266.304C105.646 264.077 105.372 261.829 105.219 259.573C104.931 255.093 104.906 250.688 105.046 246.348V246.258L105.12 246.2L106.131 245.378C114.516 242.281 123.25 240.227 132.136 239.263C136.296 238.817 140.482 238.68 144.662 238.852C148.679 238.926 152.678 239.411 156.596 240.299H156.687V240.389C157.057 241.515 157.402 242.567 157.747 243.603L157.583 243.488H160.87L168.12 245.28L197.511 255.923L209.593 260.304C212.978 261.552 216.273 263.03 219.456 264.726C225.21 267.783 229.04 271.375 230.741 274.392C231.124 275.043 231.465 275.718 231.76 276.414C231.96 276.925 232.133 277.446 232.278 277.975C232.475 278.838 232.557 279.274 232.557 279.274C232.557 279.274 232.442 278.838 232.237 277.983C232.138 277.556 231.908 277.055 231.694 276.446C231.588 276.134 231.399 275.83 231.242 275.493C231.075 275.128 230.88 274.776 230.659 274.441C228.941 271.457 225.111 267.915 219.366 264.882C216.181 263.205 212.886 261.747 209.503 260.518L197.486 256.211L168.078 245.625L160.837 243.841H157.55V243.726L156.391 240.529L156.514 240.644C152.663 239.744 148.731 239.238 144.777 239.132C140.616 238.965 136.449 239.108 132.309 239.559C123.455 240.527 114.754 242.581 106.402 245.674H106.46L105.449 246.496L105.523 246.348C105.383 250.663 105.416 255.077 105.704 259.499C105.843 261.741 106.101 263.974 106.476 266.189C106.684 267.3 106.958 268.398 107.298 269.477C107.602 270.555 108.109 271.565 108.794 272.452L108.638 272.378C123.145 272.189 138.227 271.967 153.744 271.885H156.646C157.131 271.885 157.616 271.885 158.1 271.885C158.352 271.883 158.601 271.922 158.84 272C159.086 272.053 159.328 272.124 159.563 272.214C161.396 272.846 163.155 273.594 164.931 274.318C168.457 275.789 171.941 277.301 175.385 278.814C182.278 281.838 189.026 284.852 195.629 287.855L195.851 287.953L195.719 288.159L166.032 333.676L165.983 333.413L190.508 350.575H190.27L210.415 322.137C216.341 313.704 221.692 306.52 225.637 300.397C227.407 297.711 228.986 294.904 230.363 291.997C231.39 289.843 232.127 287.563 232.557 285.216C232.799 283.764 232.871 282.288 232.771 280.819C232.656 279.833 232.615 279.315 232.615 279.315Z" fill="#455A64"/>
<path d="M210.235 282.537C209.459 282.719 208.674 282.859 207.884 282.956C204.119 283.642 200.526 285.067 197.314 287.148C196.081 287.97 195.358 288.496 195.309 288.446C195.846 287.85 196.463 287.331 197.141 286.901C198.721 285.778 200.432 284.853 202.237 284.148C204.041 283.44 205.923 282.951 207.843 282.693C208.631 282.545 209.434 282.493 210.235 282.537Z" fill="#455A64"/>
<path d="M204.9 207.726V210.332L198.547 210.924L198.185 209.592L199.895 205.622L204.9 207.726Z" fill="#FB887A"/>
<path d="M199.936 209.781L191.733 226.203L193.55 255.677L189.432 262.104L185.101 254.69L185.849 226.647L198.621 208.573L199.936 209.781Z" fill="#FB887A"/>
<path d="M202.418 182.379C202.418 182.379 190.846 177.99 179.659 177.258C168.473 176.527 154.64 184.031 148.032 186.965C141.424 189.899 116.158 214.91 110.693 223.228C107.561 228.011 103.386 238.844 103.386 238.844C102.679 242.625 105.317 246.307 105.317 246.307L156.186 246.685H165.728L169.764 238.063C169.764 238.063 177.465 237.513 179.668 233.296C181.87 229.08 189.941 222.841 189.941 222.841L199.13 207.636L205.18 208.918L208.533 183.086L202.418 182.379Z" fill="#E0E0E0"/>
<path d="M164.709 193.943C164.666 194.247 164.589 194.545 164.478 194.831C164.289 195.488 164.051 196.277 163.763 197.214C163.006 199.835 162.386 202.493 161.906 205.179C161.439 207.869 161.118 210.582 160.944 213.307C160.895 214.277 160.846 215.107 160.813 215.773C160.815 216.08 160.785 216.385 160.722 216.685C160.655 216.386 160.628 216.079 160.64 215.773C160.64 215.19 160.64 214.335 160.64 213.307C160.716 210.551 160.991 207.805 161.462 205.088C161.939 202.385 162.604 199.718 163.451 197.107C163.78 196.105 164.076 195.307 164.273 194.765C164.386 194.475 164.532 194.199 164.709 193.943Z" fill="#263238"/>
<path d="M187.007 295.293C187.007 295.293 190.492 299.353 191.569 300.825C192.538 302.14 193.5 306.956 193.87 311.657C193.896 311.937 193.852 312.218 193.743 312.477C193.633 312.735 193.46 312.962 193.241 313.137C193.022 313.313 192.763 313.431 192.486 313.481C192.21 313.531 191.926 313.511 191.659 313.424C191.426 313.335 191.221 313.187 191.064 312.994C190.907 312.8 190.803 312.569 190.763 312.323C190.015 308.92 189.818 307.474 189.818 307.474C189.719 305.83 189.547 306.06 189.497 307.17C189.448 308.279 190.319 314.419 190.319 314.419C190.319 314.419 192.67 322.794 192.037 323.731C191.902 323.918 191.727 324.071 191.524 324.18C191.322 324.29 191.097 324.352 190.867 324.362C190.637 324.372 190.408 324.33 190.196 324.24C189.985 324.149 189.796 324.012 189.645 323.838C189.325 323.402 186.678 316.441 186.678 316.441L185.98 312.627C185.98 312.627 187.344 324.676 186.58 325.622C186.466 325.794 186.314 325.937 186.135 326.039C185.955 326.141 185.755 326.199 185.549 326.209C185.343 326.219 185.137 326.179 184.949 326.094C184.761 326.009 184.596 325.881 184.467 325.72C183.933 325.243 183.391 319.918 183.391 319.918L182.149 312.808L182.371 326.361C182.371 326.361 182.232 327.643 181.221 327.693C180.21 327.742 179.577 326.254 179.577 326.254L178.122 312.282C178.122 312.282 178.591 320.049 178.065 320.46C177.366 321.002 176.733 320.822 176.503 320.222C176.034 319.013 175.352 312.002 175.352 312.002L174.711 298.704L174.243 294.307L185.881 290.14L187.007 295.293Z" fill="#FFBF9D"/>
<g opacity="0.3">
<path d="M161.791 212.239C158.175 223.433 155.627 234.944 154.18 246.619C154.323 250.846 154.806 255.054 155.627 259.203C156.966 265.852 167.873 294.685 167.873 294.685L175.344 295.334L169.049 244.112L175.344 220.17L161.791 212.239Z" fill="black"/>
</g>
<path d="M195.284 190.401C200.404 191.979 201.366 202.359 200.265 205.318C196.739 214.811 185.47 223.729 185.635 223.211L178.311 252.34L188.692 291.792L171.909 297.8C171.909 297.8 156.596 257.296 156.292 250.951C155.988 244.606 160.55 228.069 161.224 218.181C161.659 211.828 164.881 198.94 172.731 191.354" fill="#E0E0E0"/>
<path d="M172.739 191.296C172.739 191.296 172.615 191.444 172.361 191.724C172.106 192.003 171.711 192.406 171.226 192.965C169.844 194.613 168.612 196.382 167.544 198.25C165.875 201.231 164.525 204.38 163.517 207.644C162.868 209.68 162.349 211.756 161.963 213.858C161.766 214.976 161.585 216.126 161.478 217.318C161.372 218.51 161.298 219.784 161.125 221.008C160.533 226.039 159.432 231.488 158.322 237.356C157.78 240.282 157.205 243.323 156.794 246.471C156.559 248.06 156.485 249.668 156.572 251.271L156.744 252.471L157.024 253.671C157.196 254.493 157.426 255.315 157.657 256.137C158.552 259.375 159.621 262.663 160.739 266C161.857 269.337 163.04 272.764 164.265 276.241C166.73 283.186 169.344 290.37 172.106 297.717L171.835 297.594L179.634 294.8L188.618 291.586L188.486 291.841C184.796 277.811 181.303 264.512 178.122 252.389V252.29C180.843 241.54 183.317 231.743 185.478 223.17L185.782 223.252C185.789 223.23 185.791 223.207 185.786 223.184C185.782 223.161 185.772 223.14 185.757 223.122C185.743 223.104 185.724 223.09 185.702 223.081C185.681 223.072 185.657 223.069 185.634 223.071H185.684L185.799 223.006L186.029 222.85L186.489 222.504L187.377 221.789C187.952 221.296 188.511 220.803 189.021 220.302C190.106 219.307 191.125 218.288 192.078 217.269C193.883 215.359 195.532 213.309 197.01 211.137C198.319 209.258 199.382 207.22 200.174 205.072C200.581 203.194 200.631 201.256 200.322 199.359C199.862 195.915 198.727 193.351 197.495 191.962C196.869 191.27 196.093 190.73 195.226 190.384C195.226 190.384 195.456 190.466 195.892 190.647C196.164 190.761 196.419 190.913 196.648 191.099C196.987 191.331 197.294 191.608 197.56 191.921C198.834 193.269 200.026 195.85 200.495 199.318C200.627 200.233 200.699 201.156 200.708 202.08C200.738 203.104 200.627 204.127 200.38 205.121C199.596 207.296 198.532 209.36 197.215 211.261C195.739 213.451 194.09 215.521 192.284 217.45C191.322 218.477 190.303 219.504 189.218 220.507C188.676 221.017 188.117 221.518 187.574 222.011C187.286 222.25 186.991 222.496 186.686 222.734L186.218 223.088L185.971 223.252L185.84 223.334H185.758H185.684C185.655 223.338 185.625 223.334 185.598 223.324C185.571 223.314 185.547 223.297 185.527 223.275C185.508 223.253 185.494 223.227 185.487 223.199C185.48 223.17 185.48 223.141 185.486 223.113L185.799 223.195L178.508 252.332V252.233L188.906 291.685L188.955 291.874L188.774 291.939L179.791 295.153L171.982 297.948L171.785 298.022L171.711 297.824C168.95 290.468 166.336 283.277 163.878 276.331C162.662 272.855 161.47 269.436 160.361 266.082C159.251 262.729 158.191 259.425 157.287 256.17C157.057 255.348 156.835 254.526 156.662 253.704C156.563 253.293 156.473 252.882 156.383 252.488C156.292 252.093 156.259 251.666 156.202 251.238C156.115 249.613 156.195 247.982 156.44 246.373C156.859 243.2 157.435 240.167 157.994 237.233C159.12 231.365 160.237 225.932 160.846 220.91C161.018 219.661 161.084 218.444 161.207 217.236C161.331 216.028 161.511 214.869 161.717 213.751C162.112 211.643 162.642 209.562 163.303 207.521C164.327 204.247 165.705 201.094 167.413 198.118C168.492 196.245 169.75 194.481 171.169 192.85C172.172 191.806 172.739 191.296 172.739 191.296Z" fill="#263238"/>
<path d="M199.952 197.14C199.868 196.414 199.868 195.68 199.952 194.954C200.032 193.198 200.202 191.448 200.462 189.71C200.72 187.972 201.071 186.249 201.514 184.548C201.656 183.83 201.885 183.132 202.196 182.469C202.126 183.193 201.996 183.911 201.81 184.614C201.538 185.929 201.193 187.754 200.889 189.776C200.585 191.798 200.388 193.639 200.256 194.978C200.22 195.707 200.118 196.43 199.952 197.14Z" fill="#263238"/>
<g opacity="0.3">
<path d="M201.81 183.077C201.637 183.003 201.457 183.176 201.342 183.332C200.268 184.578 199.409 185.995 198.802 187.524C197.889 190.253 198.859 193.277 199.689 196.072C200.463 198.738 200.741 201.524 200.511 204.291L200.306 205.252C201.19 203.521 201.44 201.535 201.013 199.639C200.581 197.761 200.246 195.863 200.01 193.951C199.821 190.425 201.243 187.039 201.95 183.587C201.991 183.422 201.999 183.151 201.81 183.077Z" fill="black"/>
</g>
<path d="M144.465 260.304H139.229V297.767H144.465V260.304Z" fill="#E0E0E0"/>
<path d="M64.3779 235.828C64.8456 236.935 65.7018 237.834 66.7855 238.355C67.8692 238.875 69.1059 238.982 70.2628 238.655C82.533 235.276 95.4707 235.143 107.808 238.269C125.125 242.567 131.446 251.896 133.797 257.764C134.373 259.169 135.357 260.37 136.621 261.212C137.884 262.054 139.371 262.499 140.89 262.49H141.597C142.327 262.485 143.047 262.318 143.705 262C144.363 261.683 144.942 261.223 145.401 260.655C145.859 260.086 146.185 259.423 146.356 258.712C146.527 258.002 146.538 257.263 146.388 256.548C144.597 248.411 133.772 234.274 114.424 229.047C91.1394 222.751 74.9724 226.943 67.4519 229.285C66.8055 229.492 66.2087 229.829 65.6988 230.276C65.1888 230.724 64.7767 231.272 64.4881 231.886C64.1996 232.5 64.0409 233.167 64.0219 233.845C64.003 234.524 64.1242 235.198 64.3779 235.828Z" fill="#455A64"/>
<path d="M64.3778 235.828C64.3778 235.828 64.3039 235.671 64.1888 235.351C63.9906 234.72 63.9212 234.056 63.9847 233.398C64.0483 232.74 64.2435 232.102 64.5587 231.521C65.1041 230.528 65.9748 229.753 67.0244 229.326C73.7305 227.108 80.7185 225.857 87.7777 225.611C92.6455 225.438 97.5191 225.693 102.342 226.376C103.641 226.581 104.964 226.77 106.295 227L110.347 227.822L114.457 228.841C115.821 229.285 117.243 229.663 118.624 230.165C120.005 230.666 121.419 231.192 122.783 231.858C123.465 232.187 124.172 232.466 124.846 232.836L126.884 233.929C129.633 235.491 132.232 237.302 134.651 239.337C137.153 241.453 139.421 243.831 141.416 246.43L142.172 247.425L142.87 248.477C143.092 248.822 143.339 249.167 143.553 249.529L144.177 250.63C145.029 252.11 145.715 253.678 146.224 255.307C146.331 255.726 146.454 256.129 146.561 256.556C146.645 256.989 146.675 257.431 146.651 257.871C146.573 259.193 145.984 260.433 145.008 261.328C144.033 262.224 142.748 262.706 141.424 262.671C139.729 262.765 138.046 262.331 136.607 261.43C135.194 260.534 134.107 259.205 133.509 257.641C132.916 256.18 132.183 254.779 131.323 253.458C130.92 252.784 130.435 252.175 129.983 251.551C129.531 250.926 129.029 250.334 128.495 249.784C126.461 247.574 124.133 245.654 121.575 244.08C119.138 242.587 116.565 241.329 113.89 240.323C111.354 239.395 108.759 238.637 106.123 238.055C101.4 236.967 96.583 236.342 91.7393 236.189C84.7188 235.951 77.7015 236.746 70.912 238.548C70.3477 238.735 69.7624 238.851 69.1696 238.893C68.4968 238.922 67.8253 238.814 67.1962 238.573C66.5672 238.333 65.994 237.966 65.5121 237.496C65.0304 237.036 64.657 236.474 64.4189 235.852C64.7069 236.451 65.0993 236.994 65.5778 237.455C66.1591 237.992 66.8611 238.381 67.6244 238.589C68.1183 238.714 68.6277 238.767 69.1367 238.745C69.7182 238.693 70.2918 238.575 70.8463 238.392C77.6554 236.524 84.7071 235.693 91.7639 235.926C96.6367 236.046 101.485 236.651 106.238 237.734C108.89 238.315 111.501 239.07 114.054 239.995C116.758 241.003 119.359 242.269 121.821 243.775C124.412 245.361 126.772 247.297 128.832 249.529C129.375 250.08 129.835 250.712 130.344 251.312C130.854 251.912 131.29 252.57 131.701 253.252C132.582 254.592 133.328 256.015 133.928 257.501C134.498 258.983 135.53 260.243 136.87 261.093C138.242 261.948 139.843 262.359 141.457 262.269C142.673 262.303 143.854 261.862 144.75 261.039C145.646 260.217 146.187 259.077 146.257 257.863C146.278 257.458 146.251 257.053 146.175 256.655C146.076 256.252 145.953 255.833 145.846 255.447C145.346 253.847 144.674 252.306 143.84 250.852L143.24 249.751C143.027 249.397 142.788 249.052 142.558 248.707L141.843 247.696L141.095 246.71C139.118 244.136 136.873 241.78 134.397 239.682C131.998 237.662 129.42 235.866 126.695 234.315L124.682 233.222C124.016 232.852 123.309 232.581 122.635 232.252C121.279 231.587 119.882 231.093 118.525 230.567C117.169 230.041 115.747 229.68 114.416 229.244L110.306 228.217L106.271 227.395C104.939 227.156 103.624 226.967 102.334 226.754C97.531 226.061 92.6772 225.786 87.827 225.932C80.7959 226.151 73.8299 227.351 67.1312 229.499C66.1073 229.897 65.2552 230.642 64.723 231.603C64.3243 232.3 64.1067 233.085 64.0902 233.888C64.0705 234.546 64.1679 235.203 64.3778 235.828Z" fill="#263238"/>
<path d="M72.967 233.847C72.967 234.632 72.7342 235.399 72.298 236.052C71.8618 236.705 71.2418 237.214 70.5164 237.514C69.791 237.815 68.9928 237.894 68.2227 237.74C67.4526 237.587 66.7453 237.209 66.1901 236.654C65.6349 236.099 65.2568 235.391 65.1036 234.621C64.9504 233.851 65.0291 233.053 65.3295 232.328C65.63 231.602 66.1388 230.982 66.7917 230.546C67.4445 230.11 68.212 229.877 68.9972 229.877C69.5188 229.876 70.0355 229.978 70.5177 230.177C70.9998 230.376 71.4378 230.668 71.8067 231.037C72.1755 231.406 72.4679 231.844 72.667 232.326C72.8662 232.808 72.9681 233.325 72.967 233.847Z" fill="white"/>
<path d="M308.445 207.299H327.168L325.705 217.597C325.705 217.597 324.489 222.66 321.595 222.66H313.483C312.486 222.049 311.622 221.242 310.945 220.289C310.267 219.336 309.788 218.255 309.538 217.112L308.445 207.299Z" fill="#455A64"/>
<path d="M308.445 207.299C308.472 207.407 308.491 207.517 308.502 207.628C308.502 207.858 308.576 208.162 308.634 208.54C308.741 209.362 308.897 210.521 309.094 211.967C309.291 213.414 309.522 215.206 309.785 217.219C310.04 218.32 310.514 219.359 311.179 220.272C311.844 221.186 312.687 221.956 313.656 222.537H313.582H320.067C320.642 222.537 321.226 222.537 321.793 222.537C322.353 222.505 322.886 222.279 323.297 221.896C324.156 221.072 324.802 220.05 325.179 218.921C325.345 218.488 325.488 218.046 325.606 217.598C326.108 213.956 326.584 210.496 327.02 207.299L327.168 207.472L313.73 207.398L309.859 207.357H308.815H308.445C308.557 207.343 308.67 207.343 308.782 207.357H309.793L313.631 207.315L327.168 207.241H327.332V207.406C326.897 210.603 326.428 214.072 325.943 217.704C325.827 218.168 325.681 218.624 325.508 219.069C325.107 220.249 324.427 221.314 323.527 222.176C323.063 222.603 322.464 222.853 321.834 222.882C321.242 222.882 320.667 222.882 320.091 222.882H313.606H313.565C312.565 222.277 311.697 221.474 311.016 220.524C310.335 219.573 309.855 218.493 309.604 217.351C309.332 215.288 309.152 213.488 308.979 212.009C308.806 210.529 308.691 209.403 308.609 208.581L308.511 207.685C308.473 207.56 308.451 207.43 308.445 207.299Z" fill="#263238"/>
<path d="M325.705 212.609L325.985 212.543C325.812 212.543 326.034 212.543 326.067 212.543C326.269 212.53 326.472 212.53 326.675 212.543C326.478 212.543 326.675 212.543 326.749 212.543L327.07 212.625L327.333 212.707C327.456 212.748 327.333 212.707 327.283 212.707L327.456 212.789C327.634 212.887 327.807 212.994 327.974 213.11C328.08 213.184 327.974 213.11 327.933 213.11L328.039 213.2C328.12 213.273 328.197 213.35 328.269 213.43C328.327 213.496 328.442 213.652 328.335 213.496C328.401 213.587 328.459 213.677 328.516 213.767C328.574 213.858 328.606 213.94 328.648 214.022C328.689 214.104 328.648 214.022 328.648 213.973C328.674 214.031 328.696 214.092 328.713 214.154C328.751 214.258 328.781 214.365 328.804 214.474C328.804 214.515 328.861 214.787 328.845 214.655C328.828 214.524 328.845 214.795 328.845 214.836C328.853 214.948 328.853 215.061 328.845 215.173C328.845 215.239 328.845 215.304 328.845 215.37C328.845 215.543 328.845 215.436 328.845 215.37C328.835 215.431 328.821 215.492 328.804 215.551C328.788 215.646 328.763 215.74 328.73 215.83C328.73 215.904 328.606 216.159 328.73 215.962C328.641 216.152 328.54 216.336 328.426 216.513L328.343 216.628C328.343 216.628 328.459 216.496 328.343 216.587C328.228 216.677 328.171 216.767 328.08 216.858C327.99 216.948 327.842 217.047 327.941 216.981C328.039 216.915 327.817 217.055 327.785 217.072L327.538 217.211L327.415 217.277C327.48 217.277 327.554 217.203 327.415 217.277C327.349 217.277 326.987 217.392 326.774 217.45C326.56 217.507 326.831 217.45 326.848 217.45H326.659H326.017H325.837L325.475 217.335C325.631 217.4 325.352 217.269 325.352 217.269C325.224 217.194 325.082 217.145 324.936 217.124C324.789 217.104 324.639 217.113 324.496 217.15C324.352 217.188 324.218 217.253 324.099 217.342C323.981 217.432 323.882 217.544 323.807 217.672C323.731 217.799 323.682 217.941 323.662 218.088C323.642 218.235 323.65 218.384 323.688 218.528C323.725 218.671 323.791 218.806 323.88 218.924C323.969 219.042 324.081 219.142 324.209 219.217C325.289 219.778 326.541 219.913 327.715 219.593C328.89 219.273 329.9 218.522 330.546 217.491C331.155 216.41 331.342 215.142 331.072 213.932C330.935 213.343 330.683 212.787 330.33 212.297C329.978 211.806 329.532 211.389 329.017 211.072C328.451 210.715 327.817 210.48 327.155 210.379C326.493 210.279 325.818 210.316 325.171 210.488C324.882 210.568 324.637 210.759 324.489 211.019C324.341 211.28 324.302 211.588 324.382 211.877C324.461 212.166 324.652 212.411 324.913 212.559C325.173 212.707 325.482 212.746 325.771 212.666L325.705 212.609Z" fill="#455A64"/>
<path d="M325.705 212.608C325.587 212.665 325.456 212.688 325.327 212.674C325.132 212.665 324.944 212.607 324.777 212.507C324.611 212.406 324.472 212.266 324.373 212.099C324.292 211.963 324.239 211.813 324.216 211.656C324.194 211.5 324.203 211.34 324.243 211.187C324.282 211.034 324.352 210.891 324.448 210.765C324.544 210.639 324.664 210.534 324.8 210.455C325.145 210.298 325.516 210.203 325.894 210.176C326.311 210.123 326.734 210.123 327.151 210.176C328.11 210.319 329.004 210.742 329.724 211.392C330.563 212.137 331.1 213.163 331.236 214.277C331.403 215.508 331.11 216.757 330.414 217.786C330.031 218.323 329.542 218.776 328.976 219.115C328.41 219.455 327.781 219.674 327.127 219.759C326.542 219.842 325.947 219.825 325.368 219.71C325.089 219.645 324.814 219.562 324.546 219.463L324.151 219.282C324.007 219.217 323.878 219.122 323.773 219.003C323.579 218.762 323.473 218.462 323.473 218.152C323.473 217.843 323.579 217.543 323.773 217.301C323.976 217.077 324.25 216.929 324.549 216.881C324.848 216.834 325.154 216.889 325.417 217.038L325.203 217.17C325.205 217.134 325.219 217.099 325.243 217.073C325.267 217.046 325.299 217.028 325.335 217.022C325.417 217.022 325.425 217.022 325.417 217.022H325.474C325.474 216.932 325.59 217.252 325.409 217.285H325.318H325.253V217.244C325.17 216.915 325.483 217.006 325.392 216.997H325.442L325.557 217.038C325.71 217.087 325.867 217.126 326.025 217.154C326.025 217.154 326.025 217.154 326.107 217.195C326.19 217.236 326.157 217.195 326.148 217.334C326.14 217.474 326.033 217.449 326.025 217.449H325.951H325.885H325.828C325.828 217.449 325.746 217.408 325.787 217.269C325.828 217.129 325.894 217.203 325.91 217.195H326.28C326.436 217.203 326.592 217.203 326.748 217.195V217.474H326.699H326.625C326.588 217.474 326.553 217.459 326.527 217.433C326.51 217.41 326.501 217.383 326.501 217.355C326.501 217.327 326.51 217.299 326.527 217.277C326.527 217.219 326.527 217.236 326.527 217.228L326.592 217.186H326.724L326.962 217.121L327.209 217.055H327.316C327.258 216.997 327.316 217.334 327.398 217.293H327.455H327.406L327.274 217.047L327.595 216.874L327.743 216.784C327.773 216.775 327.804 216.775 327.833 216.784C327.861 216.792 327.886 216.806 327.907 216.825C327.929 216.851 327.941 216.885 327.941 216.919C327.941 216.954 327.929 216.987 327.907 217.014H327.858C327.832 217.024 327.802 217.024 327.776 217.014C327.753 217.01 327.731 217 327.713 216.986C327.694 216.971 327.679 216.953 327.669 216.932C327.62 216.858 327.718 216.751 327.669 216.775C327.764 216.708 327.852 216.631 327.932 216.545L328.047 216.422C328.047 216.422 328.187 216.422 328.22 216.512C328.253 216.603 328.22 216.578 328.22 216.595L328.17 216.652L327.957 216.496C328.105 216.291 328.211 216.069 328.335 215.863L328.565 215.97V216.011C328.565 216.011 328.565 216.011 328.466 216.011C328.45 216.01 328.434 216.006 328.42 215.999C328.405 215.991 328.392 215.981 328.381 215.969C328.371 215.957 328.363 215.943 328.357 215.927C328.352 215.912 328.35 215.896 328.351 215.88V215.789C328.374 215.739 328.393 215.686 328.409 215.633C328.409 215.526 328.466 215.419 328.491 215.312V215.23C328.491 215.23 328.491 215.23 328.54 215.156C328.558 215.146 328.578 215.141 328.598 215.141C328.618 215.141 328.638 215.146 328.655 215.156H328.705C328.713 215.189 328.713 215.223 328.705 215.255V215.337C328.787 215.428 328.359 215.386 328.474 215.337V215.263C328.47 215.239 328.47 215.214 328.474 215.189C328.474 215.082 328.474 214.975 328.474 214.877C328.483 214.776 328.483 214.674 328.474 214.573V214.482C328.477 214.463 328.483 214.444 328.493 214.427C328.503 214.41 328.516 214.395 328.532 214.384C328.549 214.372 328.569 214.365 328.59 214.365C328.61 214.365 328.63 214.372 328.647 214.384C328.657 214.387 328.665 214.392 328.672 214.399C328.679 214.407 328.685 214.415 328.688 214.425C328.688 214.466 328.688 214.466 328.688 214.466V214.515C328.692 214.531 328.692 214.548 328.688 214.565C328.688 214.565 328.688 214.565 328.622 214.606C328.597 214.612 328.57 214.61 328.547 214.6C328.523 214.589 328.503 214.571 328.491 214.548L328.45 214.367C328.409 214.181 328.357 213.997 328.294 213.817L328.491 213.743V213.784C328.493 213.796 328.493 213.809 328.49 213.821C328.487 213.834 328.481 213.845 328.474 213.856C328.466 213.866 328.456 213.874 328.445 213.88C328.434 213.886 328.421 213.89 328.409 213.891C328.327 213.891 328.327 213.891 328.318 213.891C328.318 213.891 328.318 213.825 328.261 213.792L328.179 213.619L327.981 213.315L328.146 213.208V213.249C328.154 213.263 328.158 213.279 328.158 213.295C328.158 213.311 328.154 213.326 328.146 213.34C328.137 213.353 328.124 213.365 328.11 213.372C328.096 213.38 328.08 213.384 328.063 213.384C328.047 213.384 328.031 213.38 328.017 213.372C328.003 213.365 327.99 213.353 327.981 213.34L327.924 213.266C327.887 213.218 327.846 213.174 327.8 213.134L327.562 212.904L327.677 212.773H327.727C327.529 213.044 327.644 212.839 327.603 212.896L327.496 212.83L327.291 212.699C327.171 212.617 327.045 212.545 326.913 212.485L326.979 212.345H327.044H327.094C327.094 212.345 327.135 212.444 327.094 212.46H327.053H327.348L327.217 212.411L326.97 212.337L326.74 212.28H326.633C326.683 212.28 326.535 212.337 326.633 212.165H326.724V212.28H326.181H325.976C325.976 212.28 325.976 212.28 325.976 212.23H326.099C326.099 212.23 326.099 212.23 326.099 212.271H326.033C325.931 212.295 325.826 212.309 325.721 212.312C325.817 212.265 325.919 212.231 326.025 212.214H326.066H325.976H326.724V212.329H326.633C326.732 212.148 326.576 212.23 326.633 212.214H326.765L327.011 212.263L327.266 212.337L327.398 212.378C327.348 212.575 327.348 212.502 327.34 212.51H327.258L327.324 212.37C327.46 212.432 327.592 212.503 327.718 212.584L327.932 212.707L328.047 212.773L328.006 212.839L327.948 212.789L328.063 212.658C328.152 212.73 328.238 212.807 328.318 212.888C328.318 212.937 328.409 212.97 328.458 213.028L328.516 213.102C328.516 213.102 328.474 213.102 328.458 213.102V213.06L328.622 212.954C328.688 213.052 328.762 213.151 328.828 213.266L328.918 213.439C328.918 213.439 328.976 213.488 328.918 213.529L328.861 213.578C328.839 213.571 328.816 213.571 328.795 213.578H328.754V213.521L328.951 213.447C329.025 213.637 329.085 213.832 329.132 214.03V214.104V214.162C329.132 214.162 329.132 214.162 329.066 214.162C329 214.162 329.066 214.162 329.025 214.162C329.016 214.158 329.006 214.156 328.996 214.156C328.986 214.156 328.977 214.158 328.968 214.162H328.918H328.984H329.025C329.025 214.162 329.066 214.162 329.074 214.162H328.992V214.219C328.992 214.318 328.992 214.441 328.992 214.548C329.005 214.657 329.005 214.768 328.992 214.877C328.997 214.907 328.997 214.937 328.992 214.967C328.992 214.967 328.951 214.967 328.894 214.967H328.754V214.893C328.754 214.893 328.836 214.893 328.82 214.893C329 214.893 328.927 214.893 328.943 214.893V214.975C328.943 215.082 328.885 215.206 328.853 215.321C328.84 215.38 328.821 215.438 328.795 215.493V215.567C328.474 215.436 328.59 215.469 328.581 215.452V215.411L328.811 215.518C328.68 215.74 328.573 215.978 328.417 216.2L328.203 216.044L328.261 215.978H328.31C328.31 215.978 328.368 215.978 328.384 216.036V216.077C328.384 216.077 328.433 216.143 328.425 216.126L328.302 216.258C328.217 216.346 328.127 216.428 328.031 216.504C327.973 216.455 327.973 216.414 327.957 216.422C327.94 216.43 327.957 216.422 327.957 216.381L327.916 216.307C327.916 216.307 327.957 216.356 327.916 216.365C327.874 216.373 327.916 216.438 327.916 216.438C327.914 216.456 327.918 216.473 327.927 216.488C327.936 216.502 327.949 216.514 327.965 216.521H327.924L327.768 216.619L327.439 216.8L327.307 216.554H327.365H327.464C327.587 216.554 327.611 216.858 327.546 216.792H327.505L327.373 216.841L327.127 216.907L326.872 216.973H326.748C326.748 216.973 326.748 217.038 326.699 216.849C326.699 216.849 326.699 216.685 326.699 216.702H326.814V216.981C326.647 216.993 326.48 216.993 326.313 216.981C326.228 216.989 326.143 216.989 326.058 216.981H325.968V216.841C325.968 216.841 325.968 216.759 325.968 216.718H326.058C326.058 216.718 326.058 216.784 326.058 216.792C326.058 216.8 326.058 216.792 326.058 216.841C326.058 216.841 326.058 216.841 326.058 216.899C326.065 216.923 326.065 216.949 326.058 216.973C325.889 216.94 325.722 216.899 325.557 216.849L325.433 216.808H325.359V216.759C325.361 216.732 325.361 216.704 325.359 216.677C325.466 216.463 325.409 216.562 325.425 216.537H325.474C325.474 216.537 325.474 216.636 325.433 216.652L325.368 216.767H325.31C325.34 216.776 325.371 216.776 325.401 216.767C325.423 216.762 325.445 216.752 325.463 216.738C325.482 216.724 325.497 216.706 325.507 216.685V216.644C325.507 216.644 325.507 216.644 325.392 216.644L325.294 216.784C325.094 216.676 324.864 216.637 324.64 216.673C324.416 216.708 324.209 216.817 324.053 216.981C323.909 217.165 323.832 217.393 323.832 217.626C323.832 217.86 323.909 218.087 324.053 218.271C324.243 218.435 324.464 218.561 324.702 218.641C324.956 218.736 325.217 218.81 325.483 218.863C326.023 218.977 326.579 218.996 327.127 218.921C327.741 218.845 328.333 218.642 328.865 218.325C329.397 218.008 329.858 217.584 330.217 217.08C330.888 216.123 331.181 214.952 331.039 213.792C330.92 212.743 330.423 211.773 329.642 211.063C328.955 210.432 328.097 210.017 327.176 209.871C326.433 209.733 325.667 209.795 324.957 210.052C324.829 210.128 324.718 210.227 324.629 210.346C324.54 210.464 324.476 210.599 324.439 210.743C324.381 210.99 324.423 211.249 324.554 211.466C324.636 211.62 324.753 211.752 324.896 211.852C325.039 211.952 325.203 212.017 325.376 212.041C325.457 212.246 325.567 212.437 325.705 212.608Z" fill="#263238"/>
<path d="M321.078 203.658C321.294 203.454 321.49 203.228 321.661 202.984C321.872 202.644 322.012 202.265 322.074 201.87C322.137 201.474 322.119 201.071 322.023 200.682C321.881 200.151 321.573 199.679 321.143 199.335C320.691 198.94 320.116 198.628 319.582 198.159C319.307 197.914 319.079 197.622 318.908 197.296C318.722 196.946 318.67 196.54 318.76 196.154C318.863 195.761 319.074 195.406 319.368 195.126C319.639 194.839 319.943 194.592 320.19 194.304C320.468 194.058 320.688 193.752 320.831 193.409C320.938 193.069 320.938 192.704 320.831 192.365C320.61 191.698 320.239 191.09 319.746 190.589C319.281 190.112 318.905 189.556 318.636 188.946C318.434 188.397 318.372 187.806 318.456 187.228C318.575 186.392 318.978 185.623 319.598 185.05C319.767 184.901 319.951 184.771 320.149 184.663L320.362 184.573C320.119 184.743 319.886 184.927 319.664 185.124C319.096 185.7 318.734 186.449 318.636 187.252C318.564 187.808 318.632 188.373 318.834 188.896C319.106 189.473 319.476 189.999 319.927 190.45C320.452 190.973 320.846 191.612 321.078 192.315C321.2 192.703 321.2 193.119 321.078 193.507C320.924 193.891 320.685 194.234 320.379 194.51C319.82 195.069 319.154 195.529 318.99 196.219C318.946 196.554 318.991 196.895 319.121 197.207C319.251 197.519 319.461 197.79 319.73 197.995C320.223 198.439 320.798 198.759 321.267 199.178C321.499 199.376 321.698 199.609 321.858 199.869C322.005 200.108 322.113 200.369 322.179 200.641C322.278 201.051 322.288 201.476 322.21 201.89C322.133 202.304 321.968 202.696 321.727 203.041C321.564 203.297 321.341 203.508 321.078 203.658Z" fill="#263238"/>
<path d="M317.486 203.658C317.699 203.452 317.891 203.226 318.061 202.984C318.276 202.645 318.419 202.267 318.481 201.871C318.543 201.475 318.523 201.07 318.423 200.682C318.289 200.147 317.979 199.673 317.544 199.335C317.091 198.94 316.516 198.628 315.99 198.159C315.713 197.916 315.485 197.623 315.316 197.296C315.128 196.947 315.072 196.541 315.16 196.154C315.27 195.764 315.48 195.41 315.768 195.126C316.048 194.839 316.344 194.592 316.59 194.304C316.863 194.055 317.079 193.749 317.223 193.409C317.336 193.07 317.336 192.703 317.223 192.365C317.002 191.698 316.631 191.09 316.138 190.589C315.673 190.11 315.295 189.554 315.02 188.946C314.818 188.397 314.756 187.806 314.839 187.228C314.958 186.39 315.365 185.62 315.99 185.05C316.156 184.897 316.341 184.767 316.541 184.663C316.607 184.622 316.679 184.591 316.754 184.573C316.511 184.743 316.278 184.927 316.056 185.124C315.488 185.701 315.124 186.449 315.02 187.252C314.947 187.809 315.018 188.375 315.226 188.896C315.498 189.473 315.868 189.999 316.319 190.45C316.841 190.975 317.234 191.613 317.47 192.315C317.592 192.703 317.592 193.119 317.47 193.507C317.314 193.889 317.075 194.231 316.771 194.51C316.212 195.069 315.538 195.529 315.374 196.219C315.331 196.554 315.377 196.894 315.507 197.206C315.637 197.517 315.846 197.789 316.113 197.995C316.607 198.439 317.19 198.759 317.65 199.178C317.885 199.376 318.087 199.609 318.25 199.869C318.39 200.112 318.497 200.371 318.571 200.641C318.666 201.051 318.674 201.476 318.596 201.889C318.519 202.302 318.356 202.694 318.119 203.041C317.958 203.293 317.742 203.504 317.486 203.658Z" fill="#263238"/>
<path d="M343.875 154.249L342.06 155.769L365.055 183.222L366.869 181.702L343.875 154.249Z" fill="#263238"/>
<path d="M346.555 150.398L344.74 151.917L367.735 179.37L369.55 177.85L346.555 150.398Z" fill="#263238"/>
<path d="M368.113 182.763L366.111 181.5L343.128 217.913L345.129 219.176L368.113 182.763Z" fill="#263238"/>
<path d="M373.297 183.77L371.295 182.507L348.759 218.211L350.76 219.474L373.297 183.77Z" fill="#263238"/>
<path d="M368.23 178.195L364.622 183.077C364.181 183.672 363.973 184.408 364.038 185.146C364.103 185.883 364.437 186.572 364.976 187.08C365.429 187.506 366.003 187.782 366.619 187.872C367.234 187.961 367.863 187.86 368.419 187.581L373.277 185.115C373.701 184.907 374.071 184.602 374.356 184.225C374.641 183.849 374.835 183.41 374.921 182.946L374.97 182.65C375.066 182.11 375.014 181.554 374.818 181.041C374.623 180.529 374.292 180.079 373.86 179.74L371.395 177.776C371.163 177.586 370.895 177.446 370.608 177.364C370.32 177.282 370.018 177.26 369.722 177.299C369.425 177.339 369.14 177.438 368.883 177.592C368.627 177.746 368.404 177.951 368.23 178.195Z" fill="#263238"/>
<path d="M368.23 178.195C368.23 178.195 368.271 178.08 368.419 177.916C368.644 177.666 368.926 177.474 369.241 177.357C369.737 177.172 370.282 177.172 370.778 177.357C371.08 177.466 371.359 177.63 371.6 177.842L372.422 178.483L373.342 179.19C373.695 179.434 374.025 179.709 374.329 180.011C374.66 180.376 374.902 180.811 375.038 181.285C375.173 181.758 375.198 182.256 375.11 182.74C375.055 183.283 374.867 183.804 374.562 184.256C374.256 184.708 373.843 185.077 373.359 185.329L370.416 186.817L368.929 187.573C368.441 187.865 367.898 188.052 367.334 188.124C366.816 188.171 366.293 188.093 365.812 187.894C365.33 187.696 364.904 187.384 364.569 186.985C364.235 186.586 364.002 186.111 363.891 185.603C363.78 185.094 363.794 184.566 363.932 184.063C364.055 183.638 364.262 183.241 364.54 182.896L365.238 181.976L367.375 179.198C367.625 178.852 367.9 178.525 368.197 178.22C368.001 178.599 367.769 178.959 367.507 179.296L365.477 182.157C364.963 182.749 364.555 183.424 364.269 184.154C364.16 184.576 364.149 185.017 364.236 185.444C364.323 185.871 364.506 186.273 364.77 186.62C365.064 186.997 365.449 187.294 365.889 187.484C366.328 187.673 366.808 187.749 367.285 187.705C367.797 187.637 368.29 187.463 368.732 187.195L370.219 186.439L373.153 184.951C373.55 184.726 373.894 184.418 374.16 184.048C374.426 183.677 374.608 183.253 374.694 182.805C374.78 182.357 374.767 181.896 374.658 181.453C374.548 181.011 374.343 180.597 374.058 180.242C373.77 179.944 373.459 179.669 373.129 179.42C372.816 179.165 372.521 178.918 372.225 178.688L371.403 178.022C371.181 177.82 370.925 177.659 370.647 177.546C370.188 177.39 369.691 177.39 369.233 177.546C368.861 177.697 368.52 177.917 368.23 178.195Z" fill="#455A64"/>
<path d="M331.697 222.825C331.697 222.825 334.508 216.858 345.546 216.874H350.625C350.625 216.874 360.546 219.011 361.738 222.841L331.697 222.825Z" fill="#263238"/>
<path d="M338.543 148.869L340.828 157.91C340.852 158.008 340.903 158.097 340.975 158.167C341.047 158.237 341.137 158.286 341.235 158.308C341.333 158.33 341.435 158.325 341.53 158.292C341.625 158.26 341.709 158.201 341.773 158.124L348.587 151.146C348.649 151.072 348.691 150.984 348.708 150.889C348.725 150.794 348.716 150.696 348.683 150.606C348.649 150.515 348.592 150.435 348.517 150.374C348.443 150.313 348.353 150.273 348.258 150.258L339.151 148.244C339.067 148.231 338.981 148.238 338.9 148.265C338.819 148.292 338.745 148.338 338.686 148.4C338.626 148.461 338.582 148.535 338.557 148.617C338.532 148.699 338.528 148.785 338.543 148.869Z" fill="#263238"/>
<path d="M338.543 148.869C338.543 148.869 338.485 148.803 338.493 148.647C338.505 148.528 338.553 148.415 338.631 148.324C338.709 148.232 338.813 148.167 338.929 148.138C339.092 148.105 339.259 148.105 339.422 148.138L339.973 148.244L341.321 148.516L344.896 149.264L347.05 149.724L348.208 149.97C348.341 149.985 348.467 150.032 348.578 150.106C348.688 150.181 348.778 150.281 348.841 150.398C348.907 150.53 348.932 150.678 348.914 150.824C348.897 150.97 348.837 151.107 348.743 151.22L345.71 154.335L341.921 158.198C341.838 158.296 341.73 158.372 341.609 158.416C341.488 158.461 341.357 158.474 341.23 158.453C341.102 158.433 340.983 158.379 340.882 158.298C340.781 158.218 340.703 158.112 340.655 157.992C340.548 157.59 340.474 157.269 340.384 156.924C340.219 156.242 340.063 155.584 339.907 154.968C339.619 153.751 339.356 152.675 339.135 151.746C338.913 150.817 338.789 150.192 338.658 149.633C338.583 149.383 338.541 149.123 338.535 148.861C338.642 149.099 338.727 149.347 338.789 149.601C338.946 150.151 339.143 150.842 339.373 151.68C339.603 152.518 339.915 153.677 340.236 154.886L340.754 156.825L341.025 157.853C341.048 157.908 341.084 157.956 341.131 157.992C341.177 158.029 341.233 158.053 341.291 158.062C341.35 158.071 341.41 158.065 341.466 158.044C341.521 158.023 341.57 157.988 341.609 157.943L345.381 154.064L348.422 150.957C348.465 150.903 348.492 150.839 348.499 150.771C348.506 150.702 348.493 150.634 348.462 150.573C348.431 150.512 348.382 150.461 348.323 150.427C348.263 150.393 348.195 150.377 348.126 150.381L346.976 150.118L344.822 149.625L341.263 148.803L339.924 148.475L339.381 148.343C339.245 148.289 339.099 148.267 338.954 148.277C338.859 148.296 338.771 148.342 338.702 148.409C338.632 148.476 338.582 148.561 338.559 148.655C338.535 148.787 338.559 148.869 338.543 148.869Z" fill="#455A64"/>
<path d="M331.803 174.644C336.315 168.603 338.871 162.455 338.444 156.168L329.97 148.006C321.751 145.269 310.45 153.891 310.45 153.891C310.45 153.891 313.252 169.096 331.803 174.644Z" fill="#263238"/>
<path d="M343.034 142.026L343.298 142.273C344.494 143.394 345.195 144.945 345.248 146.583C345.301 148.222 344.7 149.814 343.579 151.01L335.927 159.169L326.646 150.466L334.304 142.3C334.859 141.709 335.525 141.232 336.264 140.898C337.003 140.564 337.801 140.379 338.612 140.353C339.423 140.328 340.231 140.462 340.99 140.749C341.749 141.036 342.443 141.47 343.034 142.026Z" fill="#263238"/>
<path d="M337.869 155.88C337.258 155.901 336.649 155.8 336.077 155.584C334.671 155.148 333.373 154.416 332.272 153.439C331.162 152.464 330.272 151.265 329.658 149.921C329.377 149.382 329.204 148.793 329.148 148.187C329.45 148.707 329.724 149.242 329.97 149.79C330.633 151.048 331.519 152.176 332.584 153.118C333.654 154.055 334.881 154.795 336.209 155.305C337.211 155.683 337.877 155.806 337.869 155.88Z" fill="#455A64"/>
<path d="M371.165 181.121C371.165 181.272 371.12 181.42 371.036 181.546C370.952 181.671 370.832 181.769 370.693 181.827C370.553 181.885 370.399 181.9 370.251 181.871C370.103 181.841 369.967 181.768 369.86 181.662C369.753 181.555 369.68 181.418 369.65 181.27C369.621 181.122 369.636 180.968 369.694 180.829C369.752 180.689 369.85 180.569 369.975 180.486C370.101 180.402 370.249 180.357 370.4 180.357C370.501 180.357 370.6 180.376 370.693 180.415C370.785 180.453 370.87 180.51 370.941 180.581C371.012 180.652 371.068 180.736 371.106 180.829C371.145 180.921 371.165 181.021 371.165 181.121Z" fill="#455A64"/>
<path d="M342.858 154.655C342.858 154.806 342.813 154.954 342.729 155.08C342.645 155.206 342.526 155.304 342.386 155.361C342.246 155.419 342.093 155.434 341.944 155.405C341.796 155.375 341.66 155.303 341.553 155.196C341.446 155.089 341.373 154.953 341.344 154.804C341.314 154.656 341.329 154.502 341.387 154.363C341.445 154.223 341.543 154.104 341.669 154.02C341.795 153.936 341.942 153.891 342.093 153.891C342.296 153.891 342.491 153.971 342.634 154.115C342.777 154.258 342.858 154.453 342.858 154.655Z" fill="#455A64"/>
<path d="M345.759 151.688C345.759 151.839 345.714 151.987 345.63 152.113C345.546 152.239 345.427 152.337 345.287 152.394C345.148 152.452 344.994 152.467 344.846 152.438C344.697 152.408 344.561 152.336 344.454 152.229C344.347 152.122 344.275 151.986 344.245 151.837C344.216 151.689 344.231 151.535 344.289 151.396C344.347 151.256 344.444 151.137 344.57 151.053C344.696 150.969 344.844 150.924 344.995 150.924C345.095 150.924 345.195 150.944 345.287 150.982C345.38 151.02 345.464 151.077 345.535 151.148C345.606 151.219 345.663 151.303 345.701 151.396C345.739 151.488 345.759 151.588 345.759 151.688Z" fill="#455A64"/>
<path d="M368.066 183.899C368.066 184.05 368.021 184.198 367.937 184.324C367.853 184.449 367.734 184.547 367.594 184.605C367.454 184.663 367.301 184.678 367.152 184.649C367.004 184.619 366.868 184.546 366.761 184.439C366.654 184.333 366.581 184.196 366.552 184.048C366.522 183.9 366.537 183.746 366.595 183.606C366.653 183.467 366.751 183.347 366.877 183.263C367.003 183.179 367.15 183.135 367.301 183.135C367.504 183.135 367.699 183.215 367.842 183.358C367.985 183.502 368.066 183.696 368.066 183.899Z" fill="#455A64"/>
<path d="M337.762 236.156L337.532 368.772H213.851V235.795H205.919V368.772V376.144H213.851H337.532H345.464V368.772L345.694 236.156H337.762Z" fill="#E0E0E0"/>
<path d="M337.762 236.189H345.694H345.735C345.735 253.868 345.677 304.49 345.628 376.177V376.341H345.431H205.886H205.706V376.136C205.706 337.276 205.706 294.989 205.706 251.107V235.573H214.064V235.786C214.064 282.701 214.064 327.487 214.064 368.763L213.867 368.566L337.548 368.607L337.392 368.763C337.631 286.934 337.779 237.389 337.779 236.148C337.779 237.389 337.779 286.934 337.713 368.763V368.919H337.548L213.867 368.961H213.67V368.763C213.67 327.487 213.67 282.701 213.67 235.786L213.884 236H205.952L206.166 235.786V251.107C206.166 294.989 206.166 337.276 206.166 376.136L205.96 375.93L345.505 375.972L345.34 376.136C345.521 304.449 345.644 253.827 345.694 236.148L345.735 236.189H337.762Z" fill="#263238"/>
<path d="M369.578 222.825H190.369V237.126H369.578V222.825Z" fill="#AE7461"/>
<path d="M235.295 222.562L234.834 222.669C234.538 222.726 234.095 222.792 233.528 222.923C232.393 223.154 230.766 223.548 228.785 224.132C226.804 224.715 224.462 225.504 221.881 226.425C219.3 227.345 216.473 228.381 213.44 229.31C210.594 230.192 207.676 230.824 204.72 231.2C202.319 231.506 199.891 231.525 197.487 231.258C195.854 231.073 194.246 230.707 192.695 230.164C192.273 230.021 191.859 229.856 191.454 229.671C191.174 229.556 191.035 229.482 191.035 229.482C191.035 229.482 191.191 229.523 191.479 229.63C191.766 229.737 192.177 229.918 192.728 230.074C194.283 230.574 195.886 230.91 197.511 231.077C199.918 231.32 202.345 231.287 204.744 230.978C207.683 230.586 210.583 229.949 213.415 229.071C216.44 228.143 219.267 227.115 221.856 226.211C224.445 225.307 226.788 224.526 228.777 223.967C230.351 223.509 231.948 223.13 233.56 222.833C234.128 222.718 234.58 222.669 234.875 222.619C235.171 222.57 235.295 222.562 235.295 222.562Z" fill="#6F4439"/>
<path d="M326.699 235.77C326.634 235.709 326.574 235.643 326.518 235.573C326.356 235.372 326.183 235.18 326 234.997C325.302 234.281 324.502 233.672 323.625 233.189C322.237 232.432 320.726 231.926 319.162 231.693C317.088 231.405 314.981 231.457 312.924 231.849C310.423 232.336 307.953 232.97 305.527 233.748C302.744 234.665 299.869 235.271 296.954 235.556C295.366 235.67 293.77 235.562 292.212 235.236C290.593 234.879 289.017 234.35 287.51 233.658C284.428 232.302 281.453 230.46 278.165 229.129C271.549 226.466 264.554 226.26 258.48 227.041C253.069 227.819 247.77 229.234 242.691 231.258C238.335 232.902 234.908 234.545 232.533 235.581L229.796 236.822C229.171 237.11 228.834 237.249 228.834 237.249C228.834 237.249 229.155 237.077 229.771 236.781L232.483 235.491C234.85 234.389 238.278 232.786 242.626 231.093C247.706 229.041 253.016 227.609 258.439 226.828C264.538 226.006 271.59 226.228 278.247 228.907C281.535 230.255 284.535 232.096 287.592 233.444C289.083 234.131 290.643 234.657 292.244 235.014C293.781 235.34 295.355 235.448 296.921 235.334C299.82 235.055 302.681 234.462 305.453 233.567C307.879 232.796 310.349 232.17 312.85 231.693C314.927 231.307 317.055 231.265 319.146 231.57C320.721 231.817 322.24 232.34 323.633 233.115C324.508 233.612 325.304 234.239 325.992 234.973C326.248 235.22 326.484 235.487 326.699 235.77Z" fill="#6F4439"/>
<path d="M368.535 227.247C366.64 227.987 364.692 228.58 362.707 229.022C361.787 229.236 360.776 229.458 359.683 229.614C358.589 229.77 357.406 229.934 356.165 230.074C350.764 230.558 345.32 230.159 340.047 228.89C338.839 228.578 337.688 228.299 336.644 227.937C335.601 227.575 334.614 227.247 333.735 226.91C331.834 226.183 329.993 225.31 328.228 224.296C328.362 224.342 328.491 224.399 328.614 224.468L329.707 224.986C330.176 225.225 330.76 225.504 331.45 225.808C332.14 226.112 332.913 226.458 333.801 226.762C334.688 227.066 335.642 227.444 336.702 227.756C337.762 228.068 338.905 228.381 340.105 228.685C345.347 229.912 350.751 230.3 356.115 229.836C357.348 229.704 358.524 229.605 359.617 229.408C360.71 229.211 361.713 229.047 362.633 228.849C363.554 228.652 364.376 228.43 365.099 228.241C365.822 228.052 366.439 227.879 366.932 227.715L368.091 227.353C368.235 227.303 368.383 227.268 368.535 227.247Z" fill="#6F4439"/>
<path d="M265.902 219.225H210.908C209.882 219.225 209.051 220.057 209.051 221.082V221.189C209.051 222.215 209.882 223.047 210.908 223.047H265.902C266.928 223.047 267.76 222.215 267.76 221.189V221.082C267.76 220.057 266.928 219.225 265.902 219.225Z" fill="#455A64"/>
<path d="M281.551 172.08L267.809 221.477C267.665 221.988 267.325 222.421 266.863 222.683C266.402 222.944 265.855 223.013 265.343 222.874C264.832 222.73 264.399 222.39 264.137 221.929C263.876 221.467 263.807 220.921 263.946 220.408L277.696 170.97C277.838 170.458 278.178 170.024 278.64 169.762C279.103 169.5 279.65 169.432 280.162 169.573C280.419 169.645 280.659 169.767 280.868 169.933C281.077 170.098 281.251 170.303 281.381 170.536C281.51 170.77 281.591 171.026 281.621 171.291C281.65 171.556 281.626 171.824 281.551 172.08Z" fill="#455A64"/>
<path d="M270.365 175.902C270.283 175.992 266.437 172.392 261.776 167.88C257.116 163.368 253.409 159.661 253.492 159.546C253.574 159.431 257.412 163.047 262.072 167.567C266.733 172.088 270.448 175.819 270.365 175.902Z" fill="#263238"/>
<path d="M268.491 181.811C268.021 181.675 267.562 181.502 267.119 181.294L263.461 179.757C260.363 178.458 256.064 176.691 251.322 174.825C246.579 172.959 242.207 171.348 239.059 170.198L235.294 168.792C234.831 168.648 234.38 168.467 233.946 168.25C234.425 168.337 234.896 168.466 235.352 168.636C236.248 168.916 237.538 169.335 239.124 169.877C242.305 170.954 246.67 172.524 251.453 174.398C256.237 176.272 260.494 178.088 263.552 179.452C265.089 180.143 266.321 180.71 267.168 181.096C267.625 181.304 268.067 181.543 268.491 181.811Z" fill="#263238"/>
<path d="M267.736 187.696C266.615 187.869 265.476 187.894 264.349 187.77C263.216 187.794 262.083 187.675 260.979 187.417C263.234 187.225 265.504 187.318 267.736 187.696Z" fill="#263238"/>
<path d="M367.803 352.77C367.803 352.77 364.392 329.271 364.672 315.603C364.951 301.934 364.672 286.548 364.672 286.548H366.25C366.25 286.548 365.181 313.671 366.34 330.052C367.499 346.433 370.556 352.77 370.556 352.77H367.819" fill="#263238"/>
<path d="M377.987 260.107C377.741 259.276 377.241 258.543 376.557 258.011C375.554 257.378 374.247 257.641 373.13 258.011C368.371 259.696 364.154 268.565 362.231 273.233L368.543 294.521C379.951 283.967 381.924 270.085 377.987 260.107Z" fill="#455A64"/>
<path d="M376.187 258.874C376.165 258.968 376.132 259.06 376.088 259.145C376.014 259.351 375.907 259.614 375.784 259.926C375.505 260.592 375.118 261.57 374.65 262.778C373.721 265.195 372.537 268.532 371.477 272.378C370.417 276.225 369.694 279.702 369.25 282.241C369.02 283.515 368.855 284.551 368.748 285.266C368.691 285.603 368.65 285.874 368.609 286.088C368.598 286.183 368.576 286.277 368.543 286.367C368.534 286.272 368.534 286.175 368.543 286.08C368.543 285.858 368.592 285.586 368.625 285.258C368.707 284.534 368.847 283.491 369.053 282.208C369.595 278.886 370.322 275.596 371.231 272.354C372.144 269.094 373.242 265.889 374.518 262.754C375.003 261.545 375.414 260.584 375.726 259.926C375.866 259.622 375.981 259.367 376.08 259.17C376.099 259.066 376.135 258.966 376.187 258.874Z" fill="#263238"/>
<path d="M365.74 299.649C362.863 298.014 360.456 295.665 358.75 292.829C357.044 289.993 356.097 286.766 356.001 283.458C355.771 278.74 357.225 274.104 358.869 269.666C358.969 269.267 359.204 268.915 359.535 268.671C359.807 268.569 360.101 268.537 360.389 268.58C360.677 268.624 360.949 268.74 361.179 268.918C365.477 271.384 368.091 276.044 369.472 280.795C370.472 283.946 370.805 287.272 370.45 290.559C369.907 294.014 368.264 297.202 365.765 299.649" fill="#455A64"/>
<path d="M365.74 299.649C365.73 299.554 365.73 299.457 365.74 299.362V298.54C365.74 297.825 365.74 296.797 365.65 295.532C365.484 292.225 365.116 288.931 364.549 285.669C363.899 281.855 363.102 278.444 362.51 275.978L361.812 273.052L361.631 272.23C361.603 272.14 361.587 272.046 361.582 271.951C361.625 272.034 361.658 272.123 361.68 272.214C361.738 272.428 361.812 272.682 361.91 273.036C362.099 273.718 362.371 274.68 362.691 275.937C363.324 278.403 364.154 281.814 364.812 285.636C365.375 288.897 365.718 292.192 365.839 295.499C365.839 296.764 365.839 297.792 365.839 298.507C365.839 298.836 365.839 299.107 365.839 299.329C365.82 299.439 365.787 299.547 365.74 299.649Z" fill="#263238"/>
<g opacity="0.3">
<path d="M365.74 299.649C362.863 298.014 360.456 295.665 358.75 292.829C357.044 289.993 356.097 286.766 356.001 283.458C355.771 278.74 357.225 274.104 358.869 269.666C358.969 269.267 359.204 268.915 359.535 268.671C359.807 268.569 360.101 268.537 360.389 268.58C360.677 268.624 360.949 268.74 361.179 268.918C365.477 271.384 368.091 276.044 369.472 280.795C370.472 283.946 370.805 287.272 370.45 290.559C369.907 294.014 368.264 297.202 365.765 299.649" fill="black"/>
</g>
<path d="M372.422 335.641C378.25 336.923 383.041 341.033 388.672 343.038C392.387 344.361 396.595 344.83 399.562 347.427C398.855 345.627 397.162 344.427 395.518 343.408C390.887 340.496 385.94 338.119 380.773 336.323C378.135 335.411 375.258 334.679 372.554 335.403" fill="#455A64"/>
<path d="M363.989 340.794C356.691 340.671 349.006 334.457 341.749 334.088C349.343 331.622 360.233 333.635 363.989 340.794Z" fill="#455A64"/>
<path d="M366.841 323.312C370.603 322.07 374.614 321.788 378.512 322.49C382.389 323.2 386.2 324.234 389.904 325.581C389.526 323.049 387.48 321.151 385.548 319.466C384.142 318.149 382.611 316.971 380.978 315.948C379.335 314.922 377.433 314.386 375.496 314.403C374.333 314.475 373.196 314.783 372.155 315.307C371.114 315.831 370.19 316.561 369.439 317.452C367.964 319.062 367.052 321.107 366.841 323.279" fill="#455A64"/>
<path d="M351.866 315.225C347.272 311.304 340.31 311.682 334.269 311.822C343.976 316.446 353.129 322.15 361.557 328.827C361.803 324.553 357.669 320.181 351.866 315.225Z" fill="#455A64"/>
<g opacity="0.3">
<path d="M351.867 315.225C347.272 311.304 340.311 311.682 334.27 311.822C343.976 316.446 353.13 322.15 361.557 328.827C361.804 324.553 357.669 320.181 351.867 315.225Z" fill="black"/>
</g>
<path d="M368.913 309.808C371.154 308.254 373.515 306.88 375.973 305.699C378.398 304.605 380.65 302.855 382.984 301.589C386.017 299.945 388.639 297.668 391.417 295.638C394.195 293.608 397.252 291.767 400.655 291.233C397.853 290.73 394.972 290.897 392.247 291.718C389.535 292.534 386.891 293.562 384.34 294.792C380.757 296.436 377.107 298.079 374.181 300.685C371.255 303.29 368.6 305.888 368.913 309.808Z" fill="#455A64"/>
<path d="M388.532 340.794L388.302 340.687L387.669 340.358C387.118 340.071 386.329 339.635 385.335 339.134C384.841 338.879 384.299 338.608 383.691 338.312C383.082 338.016 382.466 337.737 381.792 337.441C380.342 336.791 378.837 336.268 377.296 335.879C375.771 335.455 374.165 335.413 372.62 335.756C371.943 335.903 371.278 336.101 370.631 336.348C370.075 336.573 369.542 336.848 369.036 337.169C368.297 337.628 367.62 338.181 367.022 338.813C366.595 339.265 366.389 339.537 366.373 339.528C366.406 339.451 366.45 339.379 366.505 339.315C366.64 339.113 366.788 338.921 366.948 338.739C367.525 338.068 368.192 337.479 368.929 336.989C369.45 336.652 370 336.363 370.573 336.126C371.227 335.866 371.9 335.657 372.587 335.501C374.17 335.132 375.82 335.166 377.387 335.6C378.942 335.992 380.458 336.526 381.915 337.194C382.589 337.498 383.222 337.794 383.806 338.09C384.389 338.386 384.94 338.657 385.45 338.912C386.436 339.438 387.217 339.898 387.751 340.219L388.359 340.589C388.466 340.737 388.54 340.786 388.532 340.794Z" fill="#263238"/>
<path d="M358.581 337.17C358.74 337.193 358.895 337.241 359.041 337.309C359.447 337.455 359.842 337.628 360.225 337.827C361.506 338.47 362.683 339.301 363.718 340.293C364.752 341.281 365.63 342.42 366.323 343.671C366.535 344.048 366.725 344.438 366.89 344.838C366.961 344.981 367.011 345.133 367.038 345.29C366.997 345.29 366.726 344.69 366.167 343.77C364.699 341.356 362.621 339.372 360.142 338.016C359.156 337.466 358.532 337.219 358.581 337.17Z" fill="#263238"/>
<path d="M342.398 314.854C342.505 314.873 342.61 314.904 342.71 314.945L343.59 315.257L344.971 315.767C345.505 315.972 346.088 316.268 346.754 316.589C350.178 318.174 353.374 320.211 356.255 322.646C357.832 323.996 359.312 325.455 360.685 327.011C361.804 328.28 362.855 329.608 363.833 330.989C364.655 332.172 365.296 333.158 365.732 333.832L366.225 334.654C366.292 334.74 366.348 334.834 366.39 334.934C366.312 334.856 366.243 334.771 366.184 334.679C366.061 334.515 365.872 334.26 365.642 333.923C365.181 333.257 364.532 332.279 363.677 331.128C362.822 329.978 361.762 328.663 360.505 327.2C359.127 325.663 357.65 324.219 356.083 322.876C353.218 320.441 350.055 318.378 346.672 316.737C346.023 316.441 345.447 316.137 344.913 315.915L343.549 315.364L342.727 315.002C342.612 314.966 342.502 314.916 342.398 314.854Z" fill="#263238"/>
<path d="M377.797 319.203C377.6 319.201 377.404 319.176 377.214 319.129L376.54 319.005C376.285 318.956 375.981 318.956 375.644 318.923C373.913 318.768 372.173 319.11 370.63 319.909C369.786 320.353 369.015 320.924 368.345 321.603C367.793 322.153 367.302 322.762 366.882 323.419C366.5 324.031 366.165 324.671 365.879 325.334C365.899 325.138 365.948 324.947 366.027 324.767C366.209 324.261 366.443 323.777 366.726 323.32C367.128 322.633 367.617 322 368.181 321.438C368.852 320.725 369.638 320.131 370.507 319.679C372.091 318.856 373.886 318.527 375.66 318.734C375.997 318.783 376.309 318.8 376.564 318.866L377.238 319.03C377.429 319.07 377.617 319.128 377.797 319.203Z" fill="#263238"/>
<path d="M385.129 296.419C385.048 296.49 384.956 296.548 384.857 296.592L384.035 297.036C383.32 297.414 382.301 297.981 381.068 298.679C379.835 299.378 378.381 300.323 376.836 301.425C375.151 302.605 373.572 303.931 372.118 305.386C371.366 306.118 370.717 306.947 370.186 307.852C369.71 308.764 369.249 309.652 368.83 310.507C368.076 312.01 367.401 313.552 366.808 315.126C366.412 316.187 366.08 317.271 365.814 318.372C365.741 318.782 365.648 319.188 365.534 319.589C365.527 319.482 365.527 319.375 365.534 319.268C365.534 319.055 365.584 318.751 365.682 318.356C365.913 317.241 366.218 316.143 366.594 315.068C367.167 313.478 367.831 311.922 368.584 310.408C369.003 309.586 369.455 308.657 369.931 307.737C370.469 306.801 371.13 305.941 371.896 305.181C373.36 303.715 374.956 302.386 376.663 301.211C378.225 300.11 379.696 299.214 380.945 298.49C382.194 297.767 383.23 297.241 383.953 296.888L384.775 296.485L385.129 296.419Z" fill="#263238"/>
<path d="M364.663 318.521C364.595 318.321 364.548 318.114 364.524 317.904C364.433 317.46 364.327 316.893 364.203 316.219C363.522 312.507 362.356 308.901 360.735 305.493L360.028 303.932C359.925 303.745 359.845 303.546 359.79 303.34C359.917 303.509 360.027 303.691 360.118 303.882C360.307 304.244 360.579 304.762 360.94 305.411C361.787 307.107 362.509 308.862 363.102 310.663C363.678 312.469 364.118 314.315 364.417 316.186C364.532 316.91 364.614 317.485 364.655 317.896C364.678 318.103 364.681 318.313 364.663 318.521Z" fill="#263238"/>
<path d="M364.138 301.942C363.908 299.177 363.098 296.492 361.762 294.06C359.964 290.713 357.453 287.8 354.407 285.528C351.361 283.256 347.854 281.679 344.132 280.91L360.455 305.23L362.568 309.578C363.888 307.264 364.438 304.59 364.138 301.942Z" fill="#455A64"/>
<path d="M391.589 344.32H345.62V352.465H391.589V344.32Z" fill="#FB887A"/>
<path d="M349.055 350.846L355.22 376.128H383.485L388.154 350.846H349.055Z" fill="#FB887A"/>
<path d="M391.565 352.473C391.565 352.564 381.192 352.638 368.411 352.638C355.631 352.638 345.25 352.564 345.25 352.473C345.25 352.383 355.614 352.309 368.411 352.309C381.209 352.309 391.565 352.383 391.565 352.473Z" fill="#263238"/>
</svg>
