<svg width="133" height="155" viewBox="0 0 133 155" fill="none" xmlns="http://www.w3.org/2000/svg">
<path d="M24.6394 60.8071L26.6112 89.1137L14.3141 83.3846L11.1974 95.8319C11.1974 95.8319 37.5938 110.554 40.2175 110.067C42.8412 109.581 36.2845 52.3062 36.2845 52.3062L24.6394 60.8071Z" fill="#FB887A"/>
<path d="M40.1009 110.326C36.7616 110.326 13.7311 97.535 11.0703 96.0432C11.0191 96.0164 10.9786 95.9729 10.9555 95.92C10.9324 95.8671 10.928 95.808 10.9431 95.7523L14.0544 83.3156C14.064 83.2776 14.0818 83.2422 14.1068 83.2119C14.1317 83.1816 14.163 83.1573 14.1985 83.1406C14.234 83.1239 14.2728 83.1152 14.312 83.1153C14.3513 83.1154 14.39 83.1242 14.4255 83.141L26.3144 88.6743L24.3797 60.8174C24.3752 60.7727 24.3826 60.7276 24.4013 60.6867C24.4199 60.6458 24.449 60.6106 24.4857 60.5846L36.1468 52.0784C36.1842 52.0502 36.2284 52.0324 36.275 52.0268C36.3215 52.0212 36.3687 52.0281 36.4118 52.0466C36.4537 52.0669 36.4897 52.0974 36.5166 52.1353C36.5435 52.1733 36.5603 52.2174 36.5655 52.2635C36.5655 52.4064 38.2192 66.7474 39.5179 80.9616C42.1681 109.956 40.8483 110.204 40.2864 110.31L40.1009 110.326ZM11.5049 95.6888C22.1058 101.587 38.3412 110.136 40.1698 109.792C41.7865 108.623 38.5373 74.3967 36.0726 52.7767L24.9151 60.9179L26.8763 89.0763C26.8795 89.1228 26.8704 89.1692 26.85 89.211C26.8295 89.2528 26.7983 89.2884 26.7596 89.3144C26.719 89.3366 26.6735 89.3483 26.6271 89.3483C26.5808 89.3483 26.5352 89.3366 26.4946 89.3144L14.4891 83.7599L11.5049 95.6888Z" fill="#181925"/>
<path d="M42.3642 129.09C42.3642 129.09 56.5218 124.233 62.0554 119.599C67.5891 114.965 38.6009 58.876 38.6009 58.876C38.6009 58.876 39.0461 110.326 42.3642 129.09Z" fill="#FB887A"/>
<path d="M42.3644 129.36C42.3162 129.358 42.269 129.345 42.2265 129.323C42.194 129.302 42.1663 129.275 42.1452 129.243C42.1242 129.212 42.1103 129.175 42.1046 129.138C38.8184 110.564 38.3413 59.3948 38.336 58.8816C38.3355 58.8221 38.3551 58.7641 38.3916 58.7171C38.4282 58.6701 38.4795 58.6367 38.5374 58.6224C38.596 58.6076 38.6578 58.6131 38.7128 58.6381C38.7677 58.6631 38.8124 58.7061 38.8396 58.76C40.0269 61.0558 67.8543 115.082 62.2252 119.801C56.718 124.414 42.6135 129.296 42.4492 129.323C42.4236 129.34 42.3948 129.353 42.3644 129.36ZM38.8714 59.9925C38.9562 67.5783 39.6028 111.517 42.5817 128.762C44.6383 128.037 56.8929 123.604 61.8913 119.415C66.1952 115.78 47.209 76.2274 38.8714 59.9925Z" fill="#181925"/>
<path d="M101.634 110.971L99.9963 111.215C100.002 111.296 100.002 111.377 99.9963 111.458C99.869 113.574 88.4942 119.149 80.4587 122.175C78.7043 123.53 76.3509 124.217 73.3932 124.217H73.3243C67.1281 124.815 55.2126 122.101 52.52 120.25L49.6154 149.874C50.0818 150.106 50.5588 150.323 51.0412 150.54C57.3346 153.323 64.7871 154.716 73.3985 154.719C83.3422 154.719 91.7805 152.762 98.7135 148.847L98.8619 148.763C99.3019 148.509 99.7312 148.234 100.161 147.99C100.59 147.747 101.173 147.34 101.666 147.001L102.116 146.689L103.145 145.948L103.622 145.583C103.961 145.324 104.295 145.054 104.618 144.795L105.021 144.467C105.472 144.092 105.917 143.711 106.346 143.314C104.512 130.216 101.634 110.971 101.634 110.971Z" fill="#181925"/>
<path d="M73.4144 155C64.8117 155 57.2532 153.588 50.9457 150.8C50.4651 150.581 49.9881 150.359 49.5146 150.133C49.4617 150.107 49.4189 150.065 49.3927 150.012C49.368 149.967 49.3587 149.915 49.3661 149.864L52.2708 120.24C52.2739 120.194 52.2894 120.149 52.3154 120.111C52.3415 120.073 52.3774 120.043 52.4192 120.023C52.4589 120.001 52.5036 119.989 52.5491 119.989C52.5946 119.989 52.6393 120.001 52.6789 120.023C55.3292 121.822 67.1757 124.541 73.3136 123.948H73.3985C76.2925 123.948 78.6141 123.276 80.3155 121.959L80.3845 121.922C89.0719 118.653 99.6463 113.247 99.7523 111.437C99.7561 111.374 99.7561 111.31 99.7523 111.247C99.7432 111.178 99.7614 111.109 99.803 111.054C99.8447 110.998 99.9064 110.961 99.975 110.951L101.613 110.707C101.682 110.698 101.752 110.716 101.809 110.758C101.865 110.799 101.903 110.861 101.915 110.93C101.915 111.12 104.814 130.323 106.643 143.288C106.648 143.322 106.647 143.357 106.639 143.391C106.631 143.425 106.616 143.456 106.595 143.484L106.542 143.532C106.161 143.886 105.721 144.262 105.222 144.68L104.82 145.008C104.491 145.277 104.157 145.537 103.818 145.806L103.335 146.171C102.996 146.42 102.652 146.669 102.302 146.912L102.153 147.018L101.851 147.229C101.295 147.605 100.791 147.933 100.33 148.224C99.869 148.515 99.4661 148.753 99.0262 149.001L98.8778 149.086C91.9129 153.017 83.358 155 73.4144 155ZM49.9068 149.71C50.3202 149.906 50.739 150.102 51.163 150.287C57.4017 153.048 64.8859 154.445 73.4249 154.445C83.2732 154.445 91.7433 152.482 98.6074 148.626L98.7559 148.541C99.1905 148.293 99.6198 148.039 100.044 147.774C100.468 147.51 100.998 147.166 101.544 146.796L101.841 146.589L101.989 146.483C102.334 146.24 102.678 145.997 103.012 145.743L103.489 145.388C103.823 145.129 104.152 144.859 104.48 144.6L104.878 144.277C105.328 143.897 105.726 143.553 106.092 143.219C104.38 131.09 101.772 113.596 101.422 111.268L100.293 111.437V111.469C100.145 113.982 87.2167 119.933 80.623 122.404C78.8208 123.779 76.3826 124.477 73.4249 124.477H73.3719C67.2022 125.064 56.05 122.525 52.7637 120.69L49.9068 149.71Z" fill="#181925"/>
<path d="M38.1557 76.5499C38.1557 76.5499 51.2691 108.528 51.4334 109.681C51.5977 110.834 50.1348 118.087 52.2444 120.023C54.354 121.959 68.4373 125.196 74.4268 124.064C80.4163 122.932 99.869 114.204 100.017 111.458C100.166 108.713 80.745 55.0515 78.3174 48.5872C75.8897 42.1228 66.0097 39.8587 59.3682 40.5041C52.7267 41.1495 36.6981 45.355 33.7829 49.3965C30.8676 53.438 38.1557 76.5499 38.1557 76.5499Z" fill="white"/>
<path d="M71.3736 124.566C64.5413 124.566 53.9722 121.979 52.064 120.218C50.3997 118.684 50.8131 114.203 51.0622 111.526C51.1414 110.927 51.1769 110.322 51.1682 109.717C51.0251 108.776 41.5479 85.5263 37.9171 76.6497C37.615 75.6976 30.6236 53.3739 33.5813 49.2636C36.6609 44.9894 53.193 40.8632 59.3574 40.2707C65.8134 39.6412 76.0486 41.7836 78.5769 48.5178C80.6653 54.0669 100.468 108.617 100.309 111.5C100.129 114.563 80.2678 123.26 74.5062 124.349C73.4709 124.518 72.4223 124.591 71.3736 124.566ZM38.4047 76.4593C39.7669 79.7867 51.534 108.511 51.693 109.643C51.7126 110.288 51.6789 110.934 51.5923 111.574C51.3643 113.986 50.9509 118.451 52.4244 119.832C54.5446 121.784 68.559 124.905 74.3789 123.804C80.9462 122.567 99.6091 113.854 99.7523 111.442C99.906 108.844 80.7978 55.9501 78.0681 48.6817C75.6352 42.2068 65.6809 40.1543 59.3945 40.7468C52.557 41.4133 36.7722 45.677 33.9947 49.5281C31.2173 53.3792 38.2139 75.8615 38.4047 76.4593Z" fill="#181925"/>
<path d="M39.2847 46.8096C39.2847 46.8096 37.6945 61.5157 38.638 64.5891C39.5815 67.6626 44.0286 76.1054 44.0286 76.1054C44.0286 76.1054 51.4492 66.8479 52.891 65.8799C54.3327 64.9118 67.7906 73.4763 67.7906 73.4763C67.7906 73.4763 68.2729 64.2664 66.3329 56.6701C64.393 49.0737 60.9848 40.8266 59.8558 39.3719C58.7268 37.9172 58.7215 43.2547 54.5076 46.8096C50.2937 50.3644 39.2847 46.8096 39.2847 46.8096Z" fill="white"/>
<path d="M44.0286 76.3696C43.9843 76.3647 43.9419 76.3491 43.905 76.3243C43.868 76.2994 43.8377 76.2659 43.8165 76.2268C43.6363 75.883 39.3748 67.7258 38.4101 64.6683C37.4454 61.6107 38.9772 47.3807 39.0461 46.7776C39.0498 46.7391 39.0621 46.7019 39.0824 46.6689C39.1026 46.6359 39.1301 46.608 39.1627 46.5872C39.1966 46.5667 39.2343 46.5534 39.2734 46.5479C39.3126 46.5425 39.3525 46.545 39.3907 46.5554C39.4967 46.5925 50.3096 50.0257 54.3592 46.6083C56.6596 44.6669 57.6667 42.2071 58.3292 40.5831C58.7639 39.5251 59.0077 38.9326 59.4529 38.8691C59.5784 38.8714 59.7013 38.9056 59.8098 38.9686C59.9183 39.0315 60.009 39.1211 60.0731 39.2289C61.2922 40.8158 64.7057 49.211 66.5979 56.6169C68.5273 64.1657 68.0715 73.4126 68.0662 73.5078C68.0624 73.5537 68.0474 73.598 68.0225 73.6367C67.9975 73.6755 67.9634 73.7075 67.9231 73.7299C67.8828 73.7532 67.8371 73.7654 67.7905 73.7654C67.744 73.7654 67.6983 73.7532 67.658 73.7299C61.1226 69.5668 53.8768 65.5887 53.05 66.1336C51.9104 66.8477 46.7901 73.0846 44.2353 76.2585C44.2123 76.2923 44.1815 76.32 44.1455 76.3393C44.1096 76.3587 44.0694 76.3691 44.0286 76.3696ZM39.5179 47.1638C39.29 49.3221 38.0285 61.7799 38.8924 64.5148C39.7299 67.1598 43.2282 73.9839 44.0763 75.6238C45.412 73.9627 51.4068 66.5515 52.7425 65.6628C54.1949 64.6947 64.5891 71.1379 67.5414 73.0052C67.605 71.0585 67.7428 63.2505 66.0732 56.7333C64.0749 48.9095 60.7038 40.9005 59.6437 39.5357C59.543 39.4087 59.49 39.3928 59.49 39.3928C59.1892 39.818 58.9567 40.2874 58.801 40.7841C58.1543 42.3711 57.0783 44.9843 54.6825 47.0104C50.7602 50.3378 41.3783 47.7192 39.5179 47.1638Z" fill="#181925"/>
<path d="M38.092 49.3698C39.732 53.1864 41.7829 56.8137 44.2088 60.1877C47.051 64.0511 50.4029 67.5138 54.1736 70.482C54.1736 70.482 58.7214 58.7912 59.9459 51.8137C61.1703 44.8363 59.0713 37.8535 59.0713 37.8535C59.0713 37.8535 58.1967 48.3223 54.5235 50.4172C50.8503 52.512 38.092 49.3698 38.092 49.3698Z" fill="white"/>
<path d="M54.1736 70.7467C54.1165 70.7453 54.0611 70.7269 54.0146 70.6938C50.2249 67.7056 46.8538 64.2238 43.9914 60.3414C41.5566 56.9468 39.4952 53.3004 37.8429 49.4652C37.826 49.4201 37.8217 49.3711 37.8307 49.3237C37.8396 49.2764 37.8614 49.2323 37.8936 49.1964C37.9258 49.1604 37.9672 49.1339 38.0134 49.1198C38.0596 49.1056 38.1087 49.1044 38.1556 49.1161C38.2828 49.1425 50.8767 52.2054 54.3909 50.1741C57.9051 48.1427 58.7956 37.9225 58.8062 37.8167C58.8109 37.756 58.8368 37.6989 58.8795 37.6554C58.9221 37.6119 58.9787 37.5847 59.0394 37.5787C59.1013 37.571 59.164 37.5853 59.2163 37.6192C59.2687 37.6531 59.3074 37.7043 59.3256 37.7638C59.3256 37.8326 61.4458 44.8841 60.2055 51.8404C58.9652 58.7967 54.4651 70.4399 54.4227 70.5774C54.4082 70.6158 54.3848 70.6502 54.3544 70.6778C54.324 70.7054 54.2875 70.7254 54.2478 70.7361L54.1736 70.7467ZM38.5372 49.7456C40.156 53.3603 42.1285 56.8067 44.4261 60.0346C47.182 63.7815 50.4201 67.1502 54.057 70.0537C54.799 68.0965 58.5942 57.9873 59.6808 51.7663C60.5607 46.7726 59.6808 41.7154 59.1507 39.3455C58.7585 42.3397 57.5606 48.9733 54.6347 50.6449C51.3166 52.5546 40.9913 50.3381 38.5372 49.7456Z" fill="#181925"/>
<path d="M47.6912 51.0042C44.4592 50.6689 41.2526 50.1228 38.092 49.3696C39.732 53.1863 41.7829 56.8136 44.2088 60.1876C44.6169 60.7589 45.0356 61.3091 45.465 61.8539L52.6948 53.5117L47.6912 51.0042Z" fill="#181925"/>
<path d="M45.465 62.1191C45.4264 62.1168 45.3886 62.1067 45.354 62.0894C45.3194 62.0721 45.2886 62.048 45.2636 62.0185C44.7653 61.389 44.3625 60.8548 43.9968 60.3416C41.562 56.9471 39.5006 53.3007 37.8482 49.4655C37.8313 49.4203 37.8271 49.3714 37.8361 49.324C37.845 49.2766 37.8667 49.2326 37.8989 49.1966C37.9311 49.1607 37.9726 49.1342 38.0187 49.12C38.0649 49.1059 38.1141 49.1046 38.161 49.1163C41.3026 49.8634 44.4896 50.4059 47.7018 50.7404C47.735 50.7429 47.7674 50.7518 47.7972 50.7668L52.8061 53.2637C52.8418 53.2826 52.8728 53.3092 52.8968 53.3416C52.9208 53.374 52.9372 53.4114 52.9448 53.451C52.9524 53.4906 52.9511 53.5314 52.9408 53.5703C52.9306 53.6093 52.9117 53.6455 52.8857 53.6763L45.6558 62.0238C45.6072 62.0794 45.5387 62.1136 45.465 62.1191ZM38.5373 49.7459C40.154 53.3617 42.1266 56.8083 44.4261 60.0348C44.7335 60.4739 45.0728 60.9235 45.4862 61.4366L52.2814 53.5864L47.6276 51.2641C44.5686 50.9485 41.5326 50.4414 38.5373 49.7459Z" fill="#181925"/>
<path d="M59.0714 37.8537C59.0714 37.8537 64.3718 59.0929 66.333 75.095C68.2942 91.0972 72.9692 138.448 72.9692 138.448C72.9692 138.448 87.5454 134.247 95.1569 128.751C102.768 123.255 105.196 119.541 105.196 119.541C105.196 119.541 92.7293 65.0547 92.7293 64.2665C92.7293 63.4783 94.0226 55.3741 94.0226 55.3741C94.0226 55.3741 116.046 45.0481 124.468 38.7266C132.891 32.4051 130.787 29.0301 126.737 27.4167C122.687 25.8032 110.056 27.5754 103.092 29.5326C96.1269 31.4899 92.565 32.7648 92.565 32.7648C92.565 32.7648 84.7945 32.1194 77.6654 33.7329C70.5363 35.3463 59.0714 37.8537 59.0714 37.8537Z" fill="#FB887A"/>
<path d="M72.9691 138.712C72.9168 138.711 72.8656 138.697 72.8207 138.67C72.7891 138.647 72.7628 138.618 72.7436 138.584C72.7244 138.55 72.7127 138.513 72.7094 138.474C72.6617 138.003 67.9866 90.9387 66.0679 75.127C64.1491 59.3154 58.8646 38.1291 58.8115 37.9175C58.7956 37.8481 58.8079 37.7752 58.8456 37.7147C58.8834 37.6543 58.9435 37.6112 59.013 37.5948C59.1296 37.5948 70.568 35.0556 77.607 33.4581C84.3704 31.9293 91.7963 32.4001 92.5278 32.4794C93.0048 32.3101 96.5879 31.0511 103.023 29.2631C109.998 27.3164 122.746 25.5602 126.832 27.1471C129.043 28.0306 130.315 29.2949 130.516 30.8131C130.813 33.0454 128.831 35.7751 124.627 38.9173C116.613 44.9161 96.0791 54.6761 94.261 55.5331C93.8105 58.3579 92.9942 63.632 92.9942 64.2456C93.0631 65.1661 101.178 100.746 105.456 119.462C105.464 119.496 105.465 119.532 105.459 119.567C105.452 119.601 105.439 119.634 105.419 119.663C105.318 119.817 102.88 123.483 95.3105 128.947C87.7415 134.412 73.1917 138.638 73.0486 138.681C73.0252 138.698 72.9979 138.709 72.9691 138.712ZM59.3893 38.055C60.0094 40.5519 64.7905 60.1882 66.5926 75.0847C68.4319 90.1981 72.7942 133.92 73.2023 138.104C75.3225 137.464 88.1231 133.507 95.0031 128.54C101.883 123.572 104.486 120.076 104.915 119.483C103.516 113.389 92.4642 65.0761 92.4642 64.2668C92.4642 63.4574 93.7098 55.6653 93.7628 55.332C93.7689 55.2895 93.7858 55.2493 93.8117 55.2151C93.8377 55.1809 93.8719 55.1538 93.9112 55.1363C94.1285 55.0305 116.009 44.731 124.309 38.5153C128.348 35.4947 130.256 32.9344 129.991 30.903C129.811 29.5699 128.688 28.4802 126.636 27.6603C122.65 26.0733 110.072 27.8454 103.166 29.7763C96.2593 31.7071 92.6921 32.9873 92.655 33.0031C92.6181 33.0086 92.5806 33.0086 92.5437 33.0031C92.4695 33.0031 84.7255 32.3789 77.7024 33.9659C71.2782 35.4365 61.1331 37.6689 59.3893 38.055Z" fill="#181925"/>
<path d="M70.2552 92.1919L69.4071 94.8104L70.2552 92.1919Z" fill="white"/>
<path d="M69.4071 95.0753H69.3276C69.2942 95.0652 69.2631 95.0484 69.2363 95.0259C69.2095 95.0035 69.1875 94.9759 69.1717 94.9448C69.1559 94.9136 69.1465 94.8796 69.1441 94.8448C69.1418 94.81 69.1465 94.775 69.158 94.7421C69.4654 93.7952 69.7464 92.9276 70.0008 92.1235C70.0112 92.0888 70.0284 92.0565 70.0514 92.0284C70.0744 92.0003 70.1026 91.977 70.1346 91.9598C70.1666 91.9426 70.2017 91.9318 70.2378 91.9282C70.274 91.9245 70.3105 91.928 70.3453 91.9384C70.3801 91.9488 70.4125 91.966 70.4407 91.9889C70.4689 92.0118 70.4922 92.04 70.5094 92.072C70.5266 92.1039 70.5374 92.1389 70.5411 92.175C70.5448 92.2111 70.5413 92.2475 70.5308 92.2823C70.2711 93.0916 70.0008 93.9539 69.6828 94.9272C69.6585 94.9779 69.6188 95.0196 69.5692 95.0462C69.5197 95.0729 69.4629 95.0831 69.4071 95.0753Z" fill="#181925"/>
<path d="M70.9284 90.2878H70.8542C70.7877 90.267 70.732 90.221 70.6993 90.1596C70.6666 90.0982 70.6594 90.0265 70.6792 89.9598C71.7882 86.3112 72.5757 82.5728 73.0327 78.7874C74.0927 71.2334 74.8666 59.4421 74.962 57.9503L72.6086 56.4532C72.5774 56.4354 72.5501 56.4115 72.5284 56.3828C72.5067 56.3541 72.4911 56.3214 72.4825 56.2865C72.474 56.2516 72.4726 56.2154 72.4785 56.1799C72.4844 56.1445 72.4975 56.1107 72.517 56.0805C72.5364 56.0502 72.5619 56.0243 72.5917 56.0042C72.6215 55.9841 72.6552 55.9703 72.6905 55.9636C72.7259 55.9569 72.7622 55.9575 72.7973 55.9653C72.8325 55.973 72.8656 55.9879 72.8948 56.0089L75.3808 57.5959C75.4205 57.6224 75.4526 57.6588 75.474 57.7014C75.4953 57.7441 75.5052 57.7916 75.5027 57.8392C75.5027 57.9662 74.6705 70.8155 73.5574 78.8668C73.1042 82.6736 72.3167 86.4334 71.204 90.1026C71.1861 90.1602 71.149 90.21 71.0989 90.2437C71.0487 90.2774 70.9886 90.2929 70.9284 90.2878Z" fill="#181925"/>
<path d="M71.4107 55.6283C71.3598 55.6291 71.3098 55.6143 71.2676 55.586L69.7517 54.6232C69.6952 54.5872 69.6545 54.5311 69.6378 54.4663C69.621 54.4015 69.6295 54.3328 69.6615 54.2741C70.6262 52.4808 72.0573 49.566 72.0573 48.9047C72.0573 48.746 71.7711 47.7039 68.1191 41.0068C68.1024 40.9763 68.0919 40.9427 68.0882 40.9081C68.0845 40.8735 68.0876 40.8385 68.0975 40.8051C68.1073 40.7717 68.1237 40.7405 68.1456 40.7134C68.1675 40.6863 68.1945 40.6638 68.2251 40.6471C68.2558 40.6304 68.2894 40.62 68.3241 40.6163C68.3587 40.6125 68.3938 40.6157 68.4273 40.6255C68.4608 40.6353 68.492 40.6517 68.5191 40.6735C68.5463 40.6954 68.5688 40.7224 68.5856 40.7529C72.5874 48.0954 72.5874 48.6879 72.5874 48.9047C72.5874 49.8199 70.764 53.3219 70.2446 54.3111L71.5538 55.1416C71.6128 55.1796 71.6543 55.2393 71.6692 55.3077C71.6841 55.3761 71.6712 55.4477 71.6333 55.5066C71.6101 55.5446 71.5774 55.5758 71.5383 55.5971C71.4992 55.6185 71.4552 55.6292 71.4107 55.6283Z" fill="#181925"/>
<path d="M66.8152 38.0967L67.4778 39.2869L66.8152 38.0967Z" fill="white"/>
<path d="M67.4936 39.5511C67.4465 39.5518 67.4 39.5399 67.359 39.5166C67.318 39.4934 67.284 39.4597 67.2604 39.4189C66.8576 38.6836 66.5979 38.2234 66.5979 38.2234C66.5649 38.162 66.557 38.0903 66.5758 38.0233C66.5945 37.9563 66.6385 37.8991 66.6986 37.8637C66.7292 37.8469 66.7628 37.8363 66.7975 37.8326C66.8322 37.8288 66.8673 37.832 66.9008 37.8418C66.9343 37.8516 66.9655 37.868 66.9927 37.8899C67.0198 37.9118 67.0424 37.9388 67.059 37.9694C67.059 37.9694 67.3187 38.4297 67.7216 39.1597C67.7393 39.1897 67.7507 39.2231 67.7553 39.2576C67.7598 39.2922 67.7573 39.3273 67.7479 39.3609C67.7385 39.3945 67.7224 39.4259 67.7005 39.4531C67.6787 39.4803 67.6516 39.5029 67.6209 39.5194C67.5815 39.5399 67.538 39.5507 67.4936 39.5511Z" fill="#181925"/>
<path d="M80.5806 121.096C80.5232 121.096 80.4674 121.077 80.4216 121.043C80.3757 121.009 80.3422 120.96 80.3261 120.905L79.1918 117.028C79.173 116.963 79.1795 116.894 79.21 116.834C79.2406 116.774 79.2928 116.728 79.3562 116.705C79.3562 116.705 80.6548 116.218 88.2609 113.314C91.1591 112.232 93.9186 110.812 96.4819 109.082C96.5104 109.06 96.543 109.044 96.5778 109.035C96.6126 109.026 96.6489 109.024 96.6844 109.03C96.72 109.035 96.754 109.048 96.7846 109.067C96.8151 109.086 96.8414 109.111 96.8619 109.14C96.8825 109.17 96.8968 109.203 96.904 109.238C96.9112 109.274 96.9111 109.31 96.9038 109.345C96.8966 109.38 96.8822 109.413 96.8616 109.443C96.841 109.472 96.8146 109.497 96.7841 109.516C94.1839 111.269 91.3875 112.712 88.4518 113.817C82.4728 116.102 80.3898 116.89 79.7696 117.123L80.7714 120.535C82.5682 120.17 94.2399 117.589 99.8159 111.294C99.8406 111.269 99.8699 111.249 99.9022 111.236C99.9345 111.222 99.9691 111.215 100.004 111.215C100.039 111.215 100.074 111.222 100.106 111.236C100.138 111.249 100.168 111.269 100.192 111.294C100.241 111.343 100.268 111.409 100.268 111.479C100.268 111.548 100.241 111.614 100.192 111.664C94.049 118.604 80.7449 121.101 80.5806 121.122V121.096Z" fill="#181925"/>
<path d="M99.3653 107.093C99.0226 107.437 98.6597 107.76 98.2787 108.061L99.3653 107.093Z" fill="white"/>
<path d="M98.2788 108.326C98.2402 108.327 98.202 108.318 98.1671 108.302C98.1322 108.285 98.1015 108.261 98.0774 108.231C98.0548 108.204 98.0379 108.173 98.0275 108.139C98.0171 108.106 98.0136 108.07 98.017 108.035C98.0205 108 98.0309 107.966 98.0476 107.936C98.0644 107.905 98.0871 107.877 98.1145 107.855C98.4852 107.561 98.8391 107.247 99.1746 106.914C99.2231 106.863 99.29 106.833 99.3606 106.831C99.4311 106.829 99.4996 106.855 99.5509 106.903C99.6022 106.952 99.6322 107.018 99.6342 107.089C99.6362 107.159 99.61 107.228 99.5615 107.279C99.2078 107.627 98.8362 107.958 98.4484 108.268C98.3996 108.305 98.3401 108.325 98.2788 108.326Z" fill="#181925"/>
<path d="M94.0225 55.6282C93.982 55.6296 93.9418 55.6205 93.9059 55.6017C93.8484 55.5731 93.8032 55.5246 93.7788 55.4652C93.7545 55.4059 93.7525 55.3397 93.7734 55.279L96.6781 46.6987C96.6858 46.6621 96.7013 46.6277 96.7234 46.5975C96.7456 46.5673 96.7738 46.5422 96.8064 46.5237C96.839 46.5053 96.8751 46.4939 96.9123 46.4904C96.9496 46.4869 96.9872 46.4913 97.0227 46.5033C97.0582 46.5154 97.0906 46.5348 97.118 46.5603C97.1454 46.5858 97.1671 46.6168 97.1816 46.6512C97.1961 46.6857 97.2031 46.7228 97.2022 46.7602C97.2013 46.7975 97.1925 46.8343 97.1763 46.868L94.9183 53.5492L100.606 45.0482C100.624 45.019 100.649 44.9938 100.678 44.9741C100.706 44.9545 100.739 44.9408 100.773 44.9339C100.807 44.927 100.842 44.927 100.876 44.9339C100.91 44.9408 100.943 44.9545 100.971 44.9742C101.03 45.013 101.07 45.0731 101.084 45.1414C101.098 45.2098 101.084 45.2809 101.046 45.3392L94.2451 55.5224C94.2188 55.556 94.185 55.5831 94.1463 55.6015C94.1077 55.6199 94.0653 55.629 94.0225 55.6282Z" fill="#181925"/>
<path d="M97.5633 45.18C97.5353 45.1851 97.5066 45.1851 97.4785 45.18C97.4127 45.1571 97.3586 45.1094 97.3279 45.047C97.2971 44.9846 97.2922 44.9127 97.3142 44.8467L97.9821 42.863C98.0045 42.7928 98.054 42.7345 98.1196 42.7008C98.1852 42.667 98.2616 42.6607 98.3319 42.6831C98.4022 42.7056 98.4607 42.755 98.4945 42.8205C98.5282 42.8859 98.5346 42.9621 98.5121 43.0323L97.8389 45.016C97.8166 45.0691 97.7778 45.1137 97.7282 45.1432C97.6786 45.1727 97.6208 45.1856 97.5633 45.18Z" fill="#181925"/>
<path d="M39.2847 46.8102C39.2847 46.8102 40.9066 76.2276 42.6876 90.611C44.4685 104.994 47.3838 140.553 47.3838 140.553C47.3838 140.553 41.7176 140.067 37.9913 135.539C35.912 133.071 34.0683 130.414 32.4842 127.604V95.6206C32.4842 94.3246 29.8922 79.6185 27.4646 72.3448C25.037 65.0711 21.4751 56.6707 23.5794 53.1105C25.6837 49.5504 32.3252 44.2234 34.7528 43.5886C37.1804 42.9538 39.1256 43.578 39.2847 46.8102Z" fill="#FB887A"/>
<path d="M47.3838 140.797C47.1453 140.797 41.5533 140.268 37.8058 135.692C35.7192 133.214 33.8667 130.549 32.2721 127.731C32.2517 127.691 32.2408 127.648 32.2403 127.604V95.6206C32.2403 94.2664 29.5901 79.5339 27.2367 72.4295C26.8551 71.2921 26.447 70.1283 26.0388 68.954C23.8232 62.606 21.5334 56.0835 23.3886 52.9783C25.5088 49.4023 32.1503 43.9854 34.721 43.3241C36.2157 42.9221 37.3712 43.0332 38.2405 43.6415C39.1097 44.2499 39.5126 45.2973 39.5868 46.8155C39.5868 47.1117 41.2299 76.3863 42.9897 90.6004C44.7494 104.815 47.6541 140.194 47.6859 140.548C47.6895 140.587 47.6842 140.626 47.6705 140.663C47.6567 140.7 47.6348 140.733 47.6064 140.76C47.5742 140.782 47.5376 140.796 47.4991 140.803C47.4607 140.809 47.4214 140.807 47.3838 140.797ZM32.7492 127.572C34.3269 130.336 36.1506 132.953 38.1981 135.391C41.3094 139.168 45.8678 140.083 47.0923 140.263C46.7954 136.65 44.0922 104.143 42.4225 90.6586C40.6628 76.4287 39.0408 47.1329 39.0196 46.8419C38.956 45.5142 38.5744 44.5884 37.8906 44.0912C37.2069 43.5939 36.1521 43.4987 34.8217 43.8531C32.5743 44.4509 25.9487 49.6721 23.8073 53.2692C22.0953 56.1628 24.3374 62.5901 26.5159 68.8005C26.924 69.9749 27.3374 71.144 27.7138 72.2813C30.1043 79.4281 32.7492 94.2717 32.7492 95.6418V127.572Z" fill="#181925"/>
<path d="M38.3782 83.7554C39.2952 86.6067 40.1804 89.1458 40.9065 90.7698L38.3782 83.7554Z" fill="white"/>
<path d="M40.9067 91.0335C40.8557 91.0335 40.8057 91.0191 40.7626 90.9919C40.7194 90.9648 40.6849 90.926 40.6629 90.8801C40.0003 89.3883 39.1469 87.0131 38.1239 83.8339C38.1039 83.7665 38.1109 83.694 38.1436 83.6318C38.1763 83.5696 38.232 83.5225 38.2989 83.5006C38.3316 83.4899 38.3661 83.4859 38.4004 83.4886C38.4347 83.4914 38.4681 83.5009 38.4986 83.5167C38.5292 83.5324 38.5564 83.5541 38.5785 83.5804C38.6006 83.6067 38.6173 83.6371 38.6275 83.6699C39.6452 86.8439 40.4932 89.1873 41.1505 90.6632C41.1774 90.7279 41.1781 90.8005 41.1524 90.8656C41.1267 90.9308 41.0766 90.9834 41.0127 91.0124C40.9795 91.0274 40.9432 91.0346 40.9067 91.0335Z" fill="#181925"/>
<path d="M37.7528 82.0305C37.6961 82.0309 37.6408 82.0131 37.595 81.9797C37.5492 81.9464 37.5153 81.8993 37.4983 81.8454C35.3782 75.0002 33.205 66.8959 32.8763 65.4465C32.4258 63.4945 34.864 60.1565 35.5266 59.2784C34.917 58.7494 33.0142 57.0725 32.4629 56.5223C32.3145 56.3742 32.0919 56.1468 32.5848 52.3644C32.5941 52.295 32.6305 52.2321 32.6861 52.1895C32.7418 52.1468 32.8121 52.128 32.8817 52.137C32.9506 52.1475 33.0128 52.1842 33.0553 52.2394C33.0977 52.2946 33.1172 52.364 33.1096 52.4332C32.7014 55.549 32.818 56.0833 32.8604 56.1732C33.4753 56.7815 36.0407 59.0245 36.0672 59.0457C36.1187 59.0906 36.1508 59.1537 36.1567 59.2218C36.1626 59.2898 36.142 59.3575 36.099 59.4107C36.0672 59.4477 32.9453 63.3728 33.3958 65.3248C33.7297 66.7584 35.8923 74.8468 38.0125 81.6814C38.0324 81.748 38.0252 81.8198 37.9925 81.8812C37.9597 81.9425 37.9041 81.9886 37.8376 82.0093C37.8111 82.0224 37.7822 82.0296 37.7528 82.0305Z" fill="#181925"/>
<path d="M34.5885 41.6362C34.5885 41.6362 33.7352 46.2702 33.1309 50.3382L34.5885 41.6362Z" fill="white"/>
<path d="M33.1309 50.6024H33.0938C33.0248 50.5907 32.963 50.5527 32.9215 50.4965C32.88 50.4403 32.8619 50.3701 32.8711 50.3009C33.4701 46.2752 34.3235 41.636 34.3288 41.5883C34.3416 41.5197 34.3812 41.459 34.4388 41.4193C34.4964 41.3797 34.5673 41.3644 34.6362 41.3767C34.7053 41.3897 34.7666 41.4289 34.8072 41.4862C34.8477 41.5435 34.8644 41.6143 34.8535 41.6836C34.8535 41.7312 33.9895 46.3599 33.3959 50.3802C33.3847 50.4424 33.3521 50.4986 33.3037 50.5392C33.2553 50.5798 33.1941 50.6022 33.1309 50.6024Z" fill="#181925"/>
<path d="M36.4808 116.622C36.4423 116.621 36.4044 116.612 36.3695 116.595L33.5072 115.252C33.452 115.218 33.4112 115.165 33.3926 115.102C33.374 115.04 33.3789 114.974 33.4064 114.915C33.4339 114.856 33.482 114.809 33.5416 114.784C33.6012 114.758 33.6682 114.755 33.7299 114.776L36.5974 116.119C36.6603 116.149 36.709 116.202 36.7328 116.268C36.7566 116.333 36.7537 116.405 36.7246 116.468C36.7021 116.514 36.6674 116.552 36.6244 116.579C36.5814 116.607 36.5317 116.621 36.4808 116.622Z" fill="#181925"/>
<path d="M41.5532 118.997C41.5147 118.995 41.4769 118.986 41.4419 118.97L37.8111 117.272C37.7793 117.257 37.7507 117.236 37.727 117.21C37.7034 117.185 37.6851 117.154 37.6733 117.121C37.6614 117.088 37.6563 117.053 37.6581 117.018C37.6599 116.983 37.6687 116.949 37.6839 116.918C37.6981 116.886 37.7186 116.858 37.744 116.834C37.7694 116.81 37.7993 116.792 37.8319 116.78C37.8646 116.769 37.8992 116.763 37.9339 116.765C37.9685 116.767 38.0025 116.776 38.0337 116.791L41.2882 118.314V114.082L33.5177 110.908C33.4523 110.882 33.4003 110.83 33.3729 110.765C33.3456 110.7 33.3452 110.627 33.372 110.562C33.3987 110.496 33.4502 110.444 33.5154 110.417C33.5805 110.39 33.6538 110.39 33.7191 110.416L41.6698 113.648C41.7182 113.668 41.7597 113.702 41.7889 113.745C41.8181 113.789 41.8339 113.84 41.8341 113.892V118.743C41.8341 118.787 41.8229 118.83 41.8016 118.869C41.7803 118.908 41.7495 118.941 41.7122 118.965C41.6635 118.991 41.6082 119.002 41.5532 118.997Z" fill="#181925"/>
<path d="M27.2102 27.3642L29.977 34.1301C29.977 34.1301 26.378 30.4007 25.5458 33.7175C24.7137 37.0343 27.2102 40.9012 28.8692 40.9012C30.5283 40.9012 32.4683 41.0388 32.4683 41.0388C32.4683 41.0388 38.2988 51.259 41.8766 53.2057C45.4544 55.1524 50.3202 56.7976 53.368 55.1365C56.4157 53.4755 58.0748 48.9208 59.0395 45.4665C60.0042 42.0121 59.3204 31.6544 59.3204 31.6544L54.3168 11.1928C54.3168 11.1928 57.7727 9.9497 57.7727 7.60096C57.7727 5.25222 49.7478 4.56453 49.7478 4.56453C49.7478 4.56453 52.928 0.861559 48.9156 0.279664C44.9031 -0.302231 31.8905 7.46342 31.4771 7.7385C31.0636 8.01358 33.6927 2.90348 30.3693 4.70207C27.0459 6.50065 23.1713 15.3349 23.59 17.398C24.0087 19.461 27.2102 27.3642 27.2102 27.3642Z" fill="white"/>
<path d="M50.3467 56.0723C47.0922 56.0723 43.4561 54.3531 41.7335 53.4274C38.2829 51.5706 32.993 42.5195 32.288 41.2922C31.811 41.2605 30.2262 41.1652 28.848 41.1652C28.1908 41.1652 27.4169 40.6362 26.7279 39.7793C25.5989 38.3351 24.7084 35.8806 25.2702 33.6535C25.4822 32.8018 25.8957 32.2887 26.4893 32.13C27.3957 31.892 28.5194 32.5744 29.2774 33.188L26.9399 27.4801C26.8127 27.1574 23.7596 19.5452 23.3303 17.4874C22.9009 15.4296 26.7226 6.37849 30.2209 4.49527C31.0689 4.03504 31.652 3.96627 32.0071 4.25722C32.5902 4.73861 32.2615 5.92885 31.8375 7.20373V7.23546C34.3552 5.7437 45.2318 -0.487869 48.9421 0.0305465C50.0976 0.189245 50.8184 0.623019 51.0888 1.32129C51.4916 2.37928 50.6965 3.70707 50.2354 4.35244C52.1012 4.55346 58.0271 5.36282 58.0271 7.61105C58.0271 9.77994 55.414 11.0337 54.6136 11.3616L59.543 31.5798C59.5801 32.0506 60.2321 42.0698 59.2621 45.5295C57.778 50.8194 55.8804 54.041 53.4634 55.3582C52.5003 55.8516 51.429 56.0971 50.3467 56.0723ZM26.8922 32.6061C26.8025 32.605 26.7131 32.6175 26.6271 32.6431C26.2296 32.7489 25.9487 33.1298 25.7844 33.7805C25.2543 35.8383 26.0971 38.1129 27.1466 39.4513C27.7243 40.1919 28.3604 40.6363 28.848 40.6363C30.5018 40.6363 32.4471 40.7738 32.4683 40.7738C32.5109 40.7776 32.5519 40.7916 32.5879 40.8146C32.6239 40.8376 32.6538 40.869 32.675 40.906C32.7333 41.0065 38.5055 51.0839 41.9826 52.9619C44.2194 54.1627 49.7955 56.76 53.2196 54.8927C55.5041 53.6495 57.3168 50.5391 58.7638 45.3708C59.7126 42.0011 59.0395 31.7491 59.0342 31.6486L54.057 11.2505C54.0415 11.1868 54.0502 11.1195 54.0816 11.0619C54.1129 11.0042 54.1646 10.9602 54.2267 10.9384C54.2585 10.9384 57.5076 9.72703 57.5076 7.59518C57.5076 6.06109 52.7372 5.07716 49.7266 4.81795C49.6782 4.81382 49.6319 4.7965 49.5927 4.7679C49.5535 4.73929 49.523 4.70049 49.5044 4.65573C49.4858 4.61097 49.4798 4.56197 49.4872 4.51409C49.4946 4.4662 49.5151 4.42126 49.5464 4.38418C49.9598 3.8975 50.9616 2.4269 50.6064 1.49058C50.4156 0.96158 49.8379 0.665341 48.8838 0.538382C45.1099 0.00938622 32.6167 7.29366 31.6308 7.94432C31.5788 7.97557 31.5192 7.99209 31.4585 7.99209C31.3978 7.99209 31.3383 7.97557 31.2863 7.94432C31.0954 7.80149 31.1537 7.63221 31.3605 7.00271C31.5672 6.3732 32.0495 4.91847 31.6944 4.62223C31.6361 4.57462 31.3764 4.44766 30.5018 4.92376C27.2685 6.66944 23.484 15.5037 23.855 17.3446C24.2578 19.3706 27.4063 27.1627 27.4381 27.2421L30.205 34.0079C30.2284 34.0647 30.2314 34.1279 30.2133 34.1866C30.1952 34.2454 30.1572 34.296 30.1057 34.3298C30.0543 34.3635 29.9927 34.3784 29.9315 34.3718C29.8703 34.3652 29.8133 34.3376 29.7703 34.2936C29.2721 33.8069 27.8887 32.6061 26.8922 32.6061Z" fill="#181925"/>
<path d="M49.7478 4.57429C49.7478 4.57429 52.928 0.871325 48.9156 0.289429C44.9031 -0.292466 31.8905 7.47319 31.4771 7.74827C31.0636 8.02334 33.6927 2.91325 30.3693 4.71183C27.0459 6.51042 23.1713 15.3446 23.59 17.4077C24.0087 19.4708 27.189 27.3528 27.189 27.3528L29.9558 34.1187C29.9558 34.1187 33.1361 37.0229 32.0336 34.8117C30.9311 32.6005 28.7102 27.6279 29.2615 26.9402C29.8127 26.2525 32.5849 25.1416 32.7227 23.6234C32.8605 22.1052 30.0725 17.6828 30.9258 16.5772C31.7792 15.4716 43.5197 17.5453 45.5975 16.3021C47.6753 15.059 45.041 12.0226 45.041 12.0226L54.3168 11.192C54.3168 11.192 57.7727 9.94889 57.7727 7.60015C57.7727 5.25141 49.7478 4.57429 49.7478 4.57429Z" fill="#181925"/>
<path d="M32.1449 35.9176C31.8587 35.9176 31.2385 35.6584 29.7756 34.3306C29.7468 34.3047 29.7249 34.2719 29.712 34.2354L26.9399 27.4695C26.8127 27.1469 23.7596 19.5346 23.3303 17.4768C22.9009 15.419 26.7226 6.36791 30.2209 4.48469C31.0689 4.02446 31.652 3.9557 32.0071 4.24664C32.5902 4.72803 32.2615 5.91827 31.8375 7.19315V7.22489C34.3552 5.7437 45.2318 -0.487868 48.9421 0.0305472C50.0976 0.189246 50.8184 0.62302 51.0888 1.32129C51.4916 2.37928 50.6965 3.70707 50.2354 4.35244C52.1012 4.55346 58.0271 5.36282 58.0271 7.61105C58.0271 10.1185 54.5394 11.3987 54.391 11.4516H54.3274L45.5498 12.2503C46.0109 12.8851 46.8113 14.16 46.6099 15.2656C46.5675 15.5328 46.4642 15.7867 46.308 16.0077C46.1518 16.2287 45.9468 16.411 45.7088 16.5405C44.5533 17.2335 40.8748 16.9796 37.3182 16.7362C34.8323 16.5669 31.4241 16.3342 31.1166 16.7362C30.735 17.2652 31.4453 19.0003 32.0177 20.4127C32.5478 21.7035 33.0301 22.9255 32.9665 23.6449C32.8605 24.7981 31.5301 25.6604 30.4594 26.3534C30.0941 26.5641 29.7544 26.8161 29.447 27.1045C29.1449 27.5436 30.4753 31.1619 32.2456 34.6956C32.4789 35.1506 32.6485 35.6055 32.3517 35.8277C32.2953 35.8807 32.2222 35.9125 32.1449 35.9176ZM30.1785 33.9762C30.725 34.4899 31.3237 34.9456 31.9647 35.3357C31.9173 35.1997 31.8607 35.0672 31.7951 34.939C31.6467 34.648 28.2385 27.8081 29.0548 26.7819C29.3954 26.4462 29.7785 26.1563 30.1944 25.9196C31.1166 25.3271 32.3781 24.5072 32.4576 23.6079C32.516 23.0154 32.023 21.7987 31.546 20.6191C30.8304 18.8469 30.1519 17.1753 30.7138 16.4294C31.1749 15.8158 33.4276 15.9427 37.3765 16.2072C40.6893 16.4347 44.4473 16.6939 45.4597 16.0856C45.6311 15.9955 45.7793 15.8669 45.8924 15.7099C46.0055 15.5529 46.0806 15.3718 46.1116 15.181C46.3131 13.922 44.8554 12.2186 44.8395 12.2027C44.8085 12.1659 44.7882 12.1213 44.7807 12.0737C44.7733 12.0262 44.7789 11.9775 44.7971 11.9329C44.8144 11.8871 44.8446 11.8472 44.8841 11.8181C44.9236 11.789 44.9707 11.7719 45.0197 11.769L54.2425 10.9437C54.5765 10.8168 57.497 9.63182 57.497 7.61105C57.497 6.07697 52.7266 5.09304 49.716 4.83383C49.6676 4.82969 49.6213 4.81238 49.5821 4.78377C49.5429 4.75516 49.5124 4.71636 49.4938 4.6716C49.4752 4.62684 49.4692 4.57784 49.4766 4.52996C49.4841 4.48207 49.5045 4.43713 49.5357 4.40005C49.9492 3.91338 50.951 2.44277 50.5958 1.50645C50.405 0.97745 49.8273 0.681211 48.8732 0.554252C45.0993 0.0252561 32.6061 7.30953 31.6202 7.96019C31.5682 7.99144 31.5086 8.00796 31.4479 8.00796C31.3872 8.00796 31.3277 7.99144 31.2757 7.96019C31.0848 7.81736 31.1431 7.64808 31.3499 7.01858C31.5566 6.38907 32.0389 4.93434 31.6838 4.6381C31.6255 4.59049 31.3658 4.46353 30.4912 4.93963C27.2579 6.68531 23.4734 15.5195 23.8444 17.3604C24.2472 19.3865 27.3957 27.1786 27.4275 27.2579L30.1785 33.9762Z" fill="#181925"/>
<path d="M51.5447 38.7007C51.5447 38.7007 50.2991 41.0494 48.3644 41.187L51.5447 38.7007Z" fill="white"/>
<path d="M48.3643 41.44C48.294 41.44 48.2266 41.4121 48.1769 41.3625C48.1272 41.3129 48.0993 41.2456 48.0993 41.1755C48.0993 41.1053 48.1272 41.0381 48.1769 40.9885C48.2266 40.9389 48.294 40.911 48.3643 40.911C50.1294 40.784 51.322 38.5887 51.3326 38.5675C51.3459 38.5326 51.3665 38.5009 51.3929 38.4744C51.4194 38.448 51.4512 38.4275 51.4862 38.4142C51.5212 38.4009 51.5587 38.3952 51.596 38.3974C51.6334 38.3997 51.6699 38.4097 51.7031 38.4271C51.7363 38.4444 51.7654 38.4685 51.7886 38.4979C51.8117 38.5273 51.8284 38.5612 51.8375 38.5975C51.8465 38.6337 51.8478 38.6715 51.8412 38.7083C51.8345 38.7451 51.8202 38.78 51.799 38.8109C51.746 38.9167 50.4633 41.2919 48.4014 41.4559L48.3643 41.44Z" fill="#181925"/>
<path d="M42.9633 32.3524C43.3502 33.183 43.1859 34.077 42.5975 34.352C42.0092 34.6271 41.2194 34.1722 40.8325 33.3417C40.4456 32.5111 40.6099 31.6171 41.1982 31.3421C41.7866 31.067 42.5816 31.5061 42.9633 32.3524Z" fill="#181925"/>
<path d="M53.0929 31.9698C53.7347 31.8678 54.1381 31.053 53.994 30.15C53.8499 29.2469 53.2128 28.5975 52.571 28.6996C51.9292 28.8016 51.5258 29.6164 51.6699 30.5194C51.814 31.4225 52.4511 32.0719 53.0929 31.9698Z" fill="#181925"/>
<path d="M48.3644 46.4233C49.7926 46.3948 51.1836 45.9639 52.3769 45.1802L48.3644 46.4233Z" fill="white"/>
<path d="M48.3646 46.6881C48.2943 46.6881 48.2269 46.6602 48.1772 46.6106C48.1275 46.561 48.0996 46.4937 48.0996 46.4236C48.0996 46.3534 48.1275 46.2861 48.1772 46.2365C48.2269 46.1869 48.2943 46.1591 48.3646 46.1591C49.7351 46.1284 51.0698 45.7161 52.2181 44.9688C52.2748 44.9281 52.3451 44.9108 52.4143 44.9207C52.4834 44.9305 52.5461 44.9668 52.5891 45.0217C52.6313 45.0778 52.6494 45.1484 52.6394 45.2178C52.6295 45.2873 52.5923 45.3499 52.5361 45.392C51.2983 46.213 49.8507 46.6628 48.3646 46.6881Z" fill="#181925"/>
<path d="M36.0461 31.0667C35.9362 31.0675 35.8287 31.0342 35.7386 30.9715C35.6244 30.8906 35.5468 30.7678 35.523 30.63C35.4992 30.4922 35.5309 30.3506 35.6114 30.2362C35.7015 30.1092 37.8376 27.1733 43.4031 28.9295C43.4696 28.9507 43.5312 28.9848 43.5845 29.0297C43.6378 29.0747 43.6817 29.1297 43.7137 29.1916C43.7457 29.2535 43.7651 29.3211 43.771 29.3905C43.7768 29.4599 43.7689 29.5297 43.7476 29.5961C43.7264 29.6624 43.6923 29.7239 43.6472 29.7771C43.6022 29.8303 43.5471 29.8741 43.4851 29.906C43.423 29.938 43.3553 29.9574 43.2858 29.9632C43.2162 29.969 43.1462 29.9611 43.0798 29.9399C38.3094 28.4323 36.5496 30.7493 36.4754 30.8445C36.4266 30.9129 36.3623 30.9687 36.2876 31.0073C36.2129 31.0459 36.1302 31.0663 36.0461 31.0667Z" fill="#181925"/>
<path d="M50.0021 28.4429C49.9512 28.451 49.8993 28.451 49.8484 28.4429C49.7815 28.423 49.7192 28.39 49.6651 28.3459C49.6109 28.3018 49.5661 28.2475 49.5331 28.186C49.5001 28.1246 49.4796 28.0572 49.4728 27.9878C49.4659 27.9184 49.4729 27.8484 49.4933 27.7817C49.8768 26.7031 50.5739 25.7631 51.4954 25.0818C52.4169 24.4006 53.5209 24.009 54.6665 23.9571C54.8071 23.9465 54.9461 23.9922 55.053 24.0839C55.1598 24.1757 55.2258 24.3061 55.2363 24.4464C55.2469 24.5867 55.2011 24.7254 55.1092 24.832C55.0173 24.9387 54.8866 25.0045 54.7461 25.015C53.8124 25.051 52.9105 25.3635 52.1553 25.9127C51.4002 26.4619 50.8259 27.223 50.5057 28.0991C50.4675 28.2012 50.3986 28.289 50.3085 28.3506C50.2183 28.4121 50.1113 28.4444 50.0021 28.4429Z" fill="#181925"/>
<path d="M57.7727 25.1523C57.7727 25.1523 58.7427 22.9411 59.8505 24.3218C60.9583 25.7025 61.3717 28.4692 60.6827 30.2624C59.9936 32.0557 59.5749 33.5793 59.5749 33.5793L59.2992 31.6431L57.7727 25.1523Z" fill="white"/>
<path d="M59.5748 33.8442C59.5138 33.8393 59.4563 33.8142 59.4112 33.773C59.3661 33.7318 59.336 33.6769 59.3256 33.6168L59.05 31.6806L57.5341 25.211C57.5131 25.1584 57.5131 25.0997 57.5341 25.047C57.5924 24.9148 58.133 23.7245 58.9705 23.6135C59.1824 23.597 59.3949 23.6374 59.586 23.7304C59.777 23.8234 59.9397 23.9656 60.0571 24.1425C61.2497 25.6342 61.6472 28.4696 60.9264 30.3423C60.2479 32.1038 59.8345 33.6168 59.8292 33.6326C59.8172 33.6915 59.7854 33.7445 59.7392 33.783C59.6929 33.8214 59.6349 33.843 59.5748 33.8442ZM58.0535 25.1846L59.5536 31.5854L59.6649 32.3578C59.8557 31.7653 60.1154 30.9929 60.4334 30.1677C61.0854 28.4802 60.7144 25.8247 59.6437 24.4916C59.437 24.2324 59.2302 24.1107 59.0394 24.1372C58.6154 24.1954 58.2073 24.8619 58.0535 25.1846Z" fill="#181925"/>
<path d="M83.2415 14.3665C83.2415 14.3665 68.0238 11.6157 67.0486 11.6157C66.0733 11.6157 54.7303 13.6894 53.0712 14.3771C51.4122 15.0648 38.813 18.6619 39.0886 19.4925C39.3642 20.323 40.8908 20.5928 40.8908 20.5928C40.8908 20.5928 41.1664 21.8359 45.5976 22.3914C50.0288 22.9468 60.4018 21.5608 60.5449 22.5289C60.5588 22.8594 60.5044 23.1892 60.3849 23.4977C60.2654 23.8063 60.0835 24.0869 59.8505 24.3222L61.0961 26.5334C61.0961 26.5334 65.6651 25.8457 67.1864 24.7401C68.7076 23.6345 73.0169 20.1802 73.0169 20.1802L82.2874 20.8731L83.2415 14.3665Z" fill="white"/>
<path d="M61.096 26.7974C61.0489 26.7981 61.0024 26.7862 60.9614 26.7629C60.9204 26.7397 60.8864 26.7059 60.8628 26.6652L59.6172 24.454C59.5892 24.4032 59.5787 24.3446 59.5873 24.2872C59.5959 24.2299 59.6232 24.1769 59.6649 24.1366C60.0614 23.7259 60.2836 23.1781 60.285 22.6078C59.8398 22.3115 56.6807 22.4702 54.1365 22.6078C51.1046 22.7559 47.6699 22.9252 45.5604 22.6607C41.85 22.2004 40.9384 21.243 40.7051 20.8356C40.2811 20.7404 39.115 20.4072 38.8394 19.5819C38.8236 19.5351 38.8178 19.4855 38.8224 19.4363C38.8269 19.3871 38.8417 19.3394 38.8659 19.2963C39.1998 18.6403 42.4649 17.5135 49.2124 15.3817C50.9668 14.8262 52.4828 14.3237 52.9651 14.1438C54.6188 13.4562 66.0254 11.3613 67.0484 11.3613C68.0714 11.3613 82.6636 14.0063 83.289 14.128C83.3567 14.1409 83.4167 14.1796 83.4563 14.2358C83.4959 14.2921 83.5119 14.3616 83.5011 14.4295L82.5311 20.9203C82.5218 20.9862 82.4875 21.0461 82.4352 21.0875C82.3829 21.1289 82.3166 21.1485 82.2501 21.1425L73.0856 20.4601C72.4814 20.9467 68.734 23.9514 67.3399 24.9618C65.7869 26.0939 61.3239 26.7763 61.1331 26.808L61.096 26.7974ZM60.1737 24.3588L61.2338 26.242C62.0925 26.1044 65.7445 25.4591 67.0272 24.5227C68.5273 23.4647 72.7888 20.0104 72.8312 19.9734C72.8837 19.9317 72.9498 19.9109 73.0168 19.9152L82.0275 20.587L82.9233 14.5935C77.6228 13.6307 67.7693 11.8797 67.0219 11.8797C66.0148 11.8797 54.7726 13.9481 53.1453 14.6252C52.6153 14.8315 51.1842 15.2918 49.3449 15.8737C46.0586 16.9317 39.9949 18.8307 39.3482 19.4814C39.5973 20.0104 40.5461 20.2696 40.9119 20.3331C40.9629 20.3444 41.0099 20.3697 41.0473 20.4061C41.0848 20.4426 41.1113 20.4887 41.1239 20.5394C41.1239 20.5394 41.532 21.5974 45.6028 22.1264C47.6646 22.3856 51.0728 22.2163 54.0835 22.0682C59.0606 21.8196 60.6773 21.7984 60.778 22.4914C60.8076 22.8272 60.7694 23.1655 60.6656 23.4862C60.5618 23.807 60.3946 24.1037 60.1737 24.3588Z" fill="#181925"/>
<path d="M49.4722 16.3125C49.4722 16.3125 43.2441 18.9575 42.2742 19.4865C41.3042 20.0155 44.071 21.1422 45.7354 20.8672C47.3997 20.5921 53.7603 18.1005 54.7461 17.8254C55.732 17.5504 60.142 18.656 63.3276 19.0686C65.3499 19.3723 67.4172 19.0857 69.28 18.2433" fill="white"/>
<path d="M45.1788 21.1797C43.8113 21.1797 42.0674 20.566 41.8395 19.9312C41.7925 19.802 41.7978 19.6596 41.8542 19.5342C41.9106 19.4088 42.0137 19.3103 42.1416 19.2594C43.1116 18.7039 49.1117 16.1754 49.3662 16.0854C49.3985 16.0716 49.4333 16.0643 49.4684 16.064C49.5036 16.0637 49.5385 16.0704 49.5711 16.0837C49.6036 16.0969 49.6332 16.1166 49.6581 16.1414C49.683 16.1662 49.7027 16.1958 49.716 16.2283C49.741 16.2929 49.74 16.3647 49.7134 16.4288C49.6868 16.4928 49.6364 16.5441 49.5729 16.5721C49.5093 16.5985 43.3501 19.2171 42.4067 19.7461C42.3789 19.759 42.3537 19.7769 42.3324 19.799C42.412 20.1005 44.2989 20.857 45.6876 20.6348C46.7848 20.4549 50.1135 19.2382 52.3132 18.4342C53.4422 18.0215 54.3327 17.6989 54.656 17.6036C55.2815 17.4291 56.8716 17.7041 59.4264 18.175C60.7621 18.4236 62.1403 18.704 63.3541 18.8415C65.3242 19.1383 67.3383 18.859 69.1528 18.0374C69.2154 18.006 69.2879 18.0007 69.3544 18.0225C69.4209 18.0443 69.4761 18.0915 69.5079 18.1538C69.5242 18.1846 69.5341 18.2183 69.5371 18.253C69.54 18.2877 69.5359 18.3226 69.525 18.3557C69.5141 18.3888 69.4967 18.4194 69.4737 18.4456C69.4507 18.4718 69.4227 18.4931 69.3913 18.5082C67.4694 19.3735 65.3368 19.6621 63.2534 19.3387C62.029 19.18 60.6402 18.9208 59.2939 18.6722C57.3381 18.3072 55.3186 17.9316 54.7832 18.085C54.4758 18.175 53.5906 18.4976 52.4775 18.905C50.1241 19.7619 46.9014 20.9416 45.7565 21.132C45.5656 21.1635 45.3724 21.1795 45.1788 21.1797Z" fill="#181925"/>
<path d="M120.742 36.4679C117.222 37.2416 113.576 37.2416 110.056 36.4679C104.226 35.1719 88.8545 27.5755 88.8545 27.5755L78.3278 24.5073L80.7448 12.2505C80.7448 12.2505 107.305 15.4827 114.753 18.2281C122.2 20.9736 133.05 27.2793 132.726 29.5434C132.403 31.8075 126.414 36.6531 126.414 36.6531" fill="#FB887A"/>
<path d="M115.399 37.2983C113.583 37.3031 111.772 37.1098 109.998 36.7217C104.205 35.4362 89.3528 28.1255 88.722 27.8134L78.243 24.7611C78.1798 24.7415 78.126 24.6994 78.0919 24.6429C78.0577 24.5863 78.0454 24.5192 78.0575 24.4543L80.4851 12.171C80.498 12.1055 80.5352 12.0474 80.5893 12.0081C80.6434 11.9689 80.7103 11.9515 80.7767 11.9594C81.0417 11.9911 107.454 15.2286 114.843 17.9529C122.104 20.6296 133.352 27.0252 132.992 29.5538C132.658 31.892 126.827 36.6318 126.578 36.8328C126.551 36.8547 126.52 36.871 126.486 36.8808C126.453 36.8907 126.418 36.8939 126.383 36.8902C126.348 36.8865 126.315 36.876 126.284 36.8594C126.253 36.8427 126.226 36.8202 126.204 36.7931C126.182 36.766 126.166 36.7349 126.156 36.7015C126.146 36.6681 126.143 36.633 126.147 36.5984C126.15 36.5638 126.161 36.5302 126.178 36.4996C126.194 36.469 126.217 36.442 126.244 36.4202C127.887 35.0924 132.212 31.2519 132.467 29.4797C132.732 27.6177 122.746 21.4337 114.662 18.4502C107.703 15.8845 83.6548 12.8481 80.9569 12.5148L78.6247 24.3167L88.9182 27.3214C89.1143 27.4166 104.38 34.9337 110.12 36.2085C113.6 36.9665 117.204 36.9665 120.684 36.2085C120.754 36.191 120.829 36.2021 120.891 36.2393C120.953 36.2765 120.998 36.3368 121.015 36.4069C121.033 36.4771 121.022 36.5513 120.984 36.6133C120.947 36.6753 120.887 36.72 120.816 36.7375C119.038 37.131 117.221 37.3191 115.399 37.2983Z" fill="#181925"/>
<path d="M43.843 97.7152C36.6502 97.7152 29.6695 89.8437 29.325 89.447C29.2971 89.4219 29.2749 89.3912 29.2598 89.3568C29.2447 89.3225 29.2371 89.2854 29.2375 89.248C29.2379 89.2105 29.2462 89.1735 29.262 89.1395C29.2777 89.1055 29.3006 89.0752 29.3289 89.0507C29.3573 89.0262 29.3906 89.0079 29.4265 88.9972C29.4625 88.9864 29.5004 88.9834 29.5376 88.9884C29.5748 88.9934 29.6105 89.0062 29.6424 89.0259C29.6743 89.0457 29.7016 89.072 29.7225 89.1031C29.8179 89.2089 39.433 100.053 47.3784 96.4297C55.3238 92.8061 59.4687 69.1071 59.5111 68.869C59.5241 68.8001 59.5634 68.7389 59.6208 68.6984C59.6782 68.6579 59.7491 68.6413 59.8185 68.6522C59.8876 68.6651 59.949 68.7043 59.9895 68.7616C60.0301 68.8189 60.0467 68.8897 60.0359 68.959C59.8663 69.9429 55.8538 93.15 47.601 96.9111C46.4218 97.4488 45.1393 97.7232 43.843 97.7152Z" fill="#181925"/>
<path d="M33.3429 89.9018C23.7543 89.9018 16.5987 81.1258 16.5245 81.0306C16.4812 80.9758 16.4613 80.9061 16.4692 80.8367C16.4772 80.7673 16.5123 80.7039 16.5669 80.6603C16.5938 80.6382 16.6249 80.6217 16.6583 80.6119C16.6917 80.602 16.7268 80.599 16.7614 80.6029C16.796 80.6069 16.8295 80.6177 16.8598 80.6348C16.8901 80.652 16.9167 80.675 16.9379 80.7026C17.0174 80.7978 24.6872 90.2245 34.6786 89.3146C44.8926 88.4048 48.1312 76.3172 48.0357 70.9426C48.0357 70.8729 48.0627 70.8058 48.1111 70.7555C48.1596 70.7052 48.2256 70.6756 48.2955 70.6729C48.3646 70.6753 48.4304 70.703 48.4803 70.7509C48.5302 70.7987 48.5606 70.8632 48.5658 70.9321C48.6612 76.4653 45.3113 88.9179 34.7263 89.8436C34.2598 89.886 33.7987 89.9018 33.3429 89.9018Z" fill="#181925"/>
<path d="M21.1943 74.8407L17.9384 73.749L12.8103 88.9832L16.0661 90.0748L21.1943 74.8407Z" fill="#181925"/>
<path d="M16.0793 90.3417C16.0513 90.3468 16.0225 90.3468 15.9945 90.3417L12.74 89.252C12.7067 89.2416 12.6758 89.2246 12.6494 89.2018C12.6229 89.1791 12.6015 89.1511 12.5863 89.1197C12.56 89.0535 12.56 88.9797 12.5863 88.9134L17.6694 73.6678C17.6924 73.602 17.74 73.5476 17.8023 73.5161C17.8645 73.4845 17.9366 73.4782 18.0034 73.4985L21.2578 74.5935C21.2912 74.6039 21.322 74.6209 21.3485 74.6437C21.3749 74.6664 21.3964 74.6944 21.4116 74.7258C21.4381 74.7902 21.4381 74.8624 21.4116 74.9268L16.2807 90.1619C16.2659 90.2068 16.2395 90.2471 16.2041 90.2787C16.1688 90.3103 16.1257 90.332 16.0793 90.3417ZM13.1587 88.8182L15.9097 89.7387L20.8497 75.0061L18.0988 74.0857L13.1587 88.8182Z" fill="#181925"/>
<path d="M22.6536 73.4607L17.604 71.7676L16.8495 74.0091L21.8991 75.7022L22.6536 73.4607Z" fill="#181925"/>
<path d="M21.9097 75.9679H21.8249L16.7735 74.2751C16.7384 74.2658 16.7056 74.2492 16.6773 74.2264C16.649 74.2036 16.6258 74.1752 16.6092 74.1429C16.5827 74.0785 16.5827 74.0063 16.6092 73.9419L17.3619 71.6989C17.3783 71.6329 17.4191 71.5755 17.4761 71.5383C17.5331 71.501 17.6021 71.4866 17.6693 71.4979L22.7154 73.1907C22.7487 73.201 22.7796 73.2181 22.806 73.2409C22.8325 73.2636 22.8539 73.2916 22.8691 73.323C22.8956 73.3873 22.8956 73.4596 22.8691 73.524L22.1164 75.7669C22.1051 75.8168 22.0796 75.8623 22.0429 75.898C22.0062 75.9336 21.9599 75.9579 21.9097 75.9679ZM17.1976 73.8519L21.7454 75.3755L22.3284 73.6404L17.7806 72.1116L17.1976 73.8519Z" fill="#181925"/>
<path d="M28.3794 77.2474L25.1235 76.1558L19.9954 91.3899L23.2513 92.4816L28.3794 77.2474Z" fill="#181925"/>
<path d="M23.2455 92.7483C23.2174 92.7533 23.1887 92.7533 23.1607 92.7483L19.9062 91.6585C19.8729 91.6482 19.842 91.6311 19.8156 91.6084C19.7891 91.5856 19.7676 91.5577 19.7525 91.5263C19.7381 91.4947 19.7307 91.4604 19.7307 91.4258C19.7307 91.3911 19.7381 91.3568 19.7525 91.3253L24.878 76.0902C24.8884 76.0569 24.9055 76.0261 24.9283 75.9997C24.9511 75.9733 24.9791 75.9519 25.0106 75.9368C25.0422 75.9224 25.0765 75.915 25.1113 75.915C25.146 75.915 25.1803 75.9224 25.212 75.9368L28.4664 77.0265C28.4999 77.0367 28.531 77.0535 28.5578 77.0759C28.5845 77.0984 28.6065 77.126 28.6224 77.1571C28.6382 77.1882 28.6476 77.2222 28.6499 77.257C28.6523 77.2919 28.6476 77.3268 28.6361 77.3598L23.4999 92.5684C23.4827 92.6218 23.4486 92.6682 23.4027 92.7007C23.3569 92.7331 23.3017 92.7498 23.2455 92.7483ZM20.3196 91.2247L23.0759 92.1505L28.0318 77.418L25.2809 76.4922L20.3196 91.2247Z" fill="#181925"/>
<path d="M29.8334 75.8659L24.7838 74.1729L24.0293 76.4143L29.0789 78.1074L29.8334 75.8659Z" fill="#181925"/>
<path d="M29.0813 78.3742H28.9965L23.9505 76.6814C23.9171 76.6711 23.8862 76.654 23.8598 76.6313C23.8334 76.6085 23.8119 76.5806 23.7967 76.5492C23.7702 76.4848 23.7702 76.4126 23.7967 76.3482L24.56 74.0893C24.5867 74.0251 24.6356 73.9726 24.6978 73.9412C24.7623 73.9148 24.8347 73.9148 24.8992 73.9412L29.9506 75.634C29.9828 75.6452 30.0125 75.6627 30.038 75.6854C30.0634 75.7081 30.0842 75.7356 30.099 75.7663C30.1255 75.8307 30.1255 75.9029 30.099 75.9673L29.3304 78.1944C29.3128 78.2465 29.2793 78.2918 29.2347 78.324C29.19 78.3563 29.1364 78.3738 29.0813 78.3742ZM24.3692 76.2582L28.917 77.787L29.5 76.0466L24.9522 74.5231L24.3692 76.2582Z" fill="#181925"/>
<path d="M27.2672 81.3327L16.6927 77.7778L12.7526 89.452L23.327 93.0068L27.2672 81.3327Z" fill="#181925"/>
<path d="M23.2455 92.7479C23.2174 92.7529 23.1887 92.7529 23.1607 92.7479L12.6128 89.2142C12.5473 89.1899 12.4927 89.1429 12.459 89.0819C12.4328 89.0156 12.4328 88.9419 12.459 88.8756L16.3814 77.2377C16.4039 77.1713 16.4514 77.1163 16.5139 77.0843C16.5784 77.0578 16.6508 77.0578 16.7153 77.0843L27.2685 80.618C27.3347 80.642 27.3889 80.6908 27.4195 80.754C27.4502 80.8172 27.455 80.8899 27.4328 80.9565L23.5105 92.5944C23.4883 92.6448 23.4507 92.6867 23.4031 92.7143C23.3554 92.7419 23.3002 92.7536 23.2455 92.7479ZM13.0315 88.7804L23.1024 92.1501L26.8339 81.02L16.763 77.6503L13.0315 88.7804Z" fill="#181925"/>
<path d="M13.5986 96.7257L3.75562 93.4248L8.97127 84.8286L14.6375 86.7277L13.5986 96.7257Z" fill="#181925"/>
<path d="M13.5987 96.9906H13.5139L3.6709 93.6897C3.63356 93.6768 3.59949 93.6559 3.5711 93.6285C3.54271 93.6011 3.52069 93.5678 3.50659 93.531C3.48963 93.4954 3.48083 93.4566 3.48083 93.4172C3.48083 93.3779 3.48963 93.339 3.50659 93.3035L8.72754 84.702C8.75828 84.6512 8.80558 84.6124 8.86154 84.5921C8.91751 84.5719 8.97873 84.5715 9.03497 84.5909L14.7012 86.49C14.7589 86.5091 14.8082 86.5473 14.841 86.5984C14.8739 86.6494 14.8881 86.7101 14.8814 86.7704L13.8213 96.7631C13.8175 96.8029 13.8045 96.8413 13.7833 96.8752C13.7622 96.9092 13.7334 96.9378 13.6994 96.9589C13.6686 96.9768 13.6342 96.9877 13.5987 96.9906ZM4.15324 93.2876L13.3707 96.3611L14.3566 86.9026L9.09328 85.1358L4.15324 93.2876Z" fill="#181925"/>
<path d="M13.5986 96.728L3.75562 93.4277L0.246259 103.853L10.0893 107.153L13.5986 96.728Z" fill="#5C6170"/>
<path d="M10.0897 107.416C10.0617 107.421 10.0329 107.421 10.0049 107.416L0.177862 104.099C0.112091 104.076 0.0579752 104.028 0.027226 103.966C-0.00352315 103.904 -0.00843281 103.832 0.0135494 103.766L3.52245 93.3393C3.5337 93.3072 3.55119 93.2775 3.57393 93.2521C3.59667 93.2267 3.62421 93.206 3.65496 93.1912C3.71949 93.1648 3.79186 93.1648 3.85638 93.1912L13.6993 96.4922C13.7651 96.515 13.8192 96.5628 13.85 96.6252C13.8807 96.6875 13.8856 96.7595 13.8637 96.8254L10.3547 107.252C10.3443 107.285 10.3272 107.315 10.3043 107.34C10.2815 107.366 10.2535 107.386 10.2222 107.4C10.1806 107.418 10.1345 107.424 10.0897 107.416ZM0.580695 103.681L9.92011 106.813L13.2647 96.8889L3.92529 93.7572L0.580695 103.681Z" fill="#181925"/>
<path d="M19.4997 76.8902L11.0485 74.0566L7.53917 84.4819L15.9904 87.3154L19.4997 76.8902Z" fill="#5C6170"/>
<path d="M15.9943 87.5792H15.9095L7.42878 84.7438C7.36228 84.7213 7.30715 84.6738 7.27507 84.6115C7.24856 84.5471 7.24856 84.4749 7.27507 84.4105L10.7787 73.9734C10.8016 73.9078 10.8495 73.8538 10.9119 73.8231C10.9744 73.7924 11.0465 73.7875 11.1126 73.8094L19.5615 76.6395C19.627 76.6638 19.6815 76.7108 19.7152 76.7718C19.7415 76.8381 19.7415 76.9118 19.7152 76.9781L16.2063 87.3993C16.1912 87.446 16.1633 87.4875 16.1259 87.5192C16.0885 87.551 16.0429 87.5718 15.9943 87.5792ZM7.87932 84.3153L15.83 86.9603L19.1693 77.0363L11.2186 74.3913L7.87932 84.3153Z" fill="#181925"/>
<path d="M27.9629 101.545L18.1199 98.2436L23.3409 89.6475L29.0071 91.5466L27.9629 101.545Z" fill="#181925"/>
<path d="M27.9628 101.809C27.9348 101.814 27.9061 101.814 27.878 101.809L18.035 98.4762C17.9977 98.4633 17.9636 98.4425 17.9352 98.4151C17.9069 98.3876 17.8848 98.3543 17.8707 98.3175C17.8578 98.28 17.8534 98.2401 17.858 98.2008C17.8626 98.1614 17.876 98.1235 17.8972 98.09L23.1129 89.4939C23.1444 89.4423 23.1924 89.4029 23.2491 89.3818C23.3058 89.3607 23.368 89.3591 23.4256 89.3775L29.0918 91.2819C29.1487 91.3 29.1973 91.3374 29.2293 91.3877C29.2613 91.438 29.2745 91.4979 29.2667 91.5569L28.2066 101.555C28.2021 101.595 28.1887 101.633 28.1677 101.666C28.1466 101.7 28.1183 101.729 28.0847 101.751C28.0498 101.78 28.0078 101.8 27.9628 101.809ZM18.5174 98.1059L27.7402 101.185L28.7261 91.7315L23.4627 89.9647L18.5174 98.1059Z" fill="#181925"/>
<path d="M27.9671 101.545L18.1241 98.2446L14.6148 108.67L24.4578 111.97L27.9671 101.545Z" fill="#5C6170"/>
<path d="M24.454 112.23H24.3692L14.5263 108.929C14.4605 108.906 14.4064 108.858 14.3756 108.796C14.3449 108.734 14.34 108.662 14.3619 108.596L17.8708 98.1693C17.8812 98.136 17.8983 98.1052 17.9211 98.0788C17.9439 98.0524 17.9719 98.031 18.0034 98.0159C18.035 98.0016 18.0693 97.9941 18.1041 97.9941C18.1388 97.9941 18.1731 98.0016 18.2048 98.0159L28.0477 101.312C28.114 101.336 28.1686 101.384 28.2002 101.447C28.2317 101.51 28.2379 101.583 28.2173 101.65L24.7084 112.071C24.6837 112.138 24.6344 112.193 24.5706 112.225C24.5329 112.237 24.4927 112.239 24.454 112.23ZM14.9503 108.527L24.2897 111.659L27.629 101.735L18.2896 98.603L14.9503 108.527Z" fill="#181925"/>
<path d="M33.8697 81.7042L25.4185 78.8706L21.9091 89.2958L30.3603 92.1294L33.8697 81.7042Z" fill="#5C6170"/>
<path d="M30.3587 92.3981C30.3306 92.4032 30.3019 92.4032 30.2738 92.3981L21.8249 89.5627C21.7916 89.5524 21.7607 89.5353 21.7343 89.5126C21.7078 89.4898 21.6863 89.4619 21.6712 89.4305C21.6447 89.3661 21.6447 89.2938 21.6712 89.2295L25.1801 78.8083C25.2019 78.7416 25.2494 78.6864 25.312 78.6547C25.3746 78.6229 25.4472 78.6173 25.514 78.639L33.9948 81.4744C34.0613 81.4969 34.1164 81.5443 34.1485 81.6066C34.175 81.671 34.175 81.7433 34.1485 81.8076L30.6396 92.2342C30.6185 92.2894 30.5791 92.3357 30.528 92.3655C30.477 92.3953 30.4172 92.4069 30.3587 92.3981ZM22.2436 89.1342L30.1943 91.7792L33.5389 81.8605L25.5882 79.2156L22.2436 89.1342Z" fill="#181925"/>
<path d="M7.70457 73.3647C7.70457 73.3647 6.55966 75.2479 6.89889 75.7875C7.23812 76.3271 10.5403 78.1415 11.0121 78.2791C11.4838 78.4166 12.7665 77.7501 12.6976 76.8614C12.6287 75.9726 10.0474 74.1053 9.2576 73.6345C8.46784 73.1637 8.04379 73.0843 7.70457 73.3647Z" fill="white"/>
<path d="M11.1499 78.5606C11.0794 78.5687 11.0083 78.5687 10.9378 78.5606C10.4078 78.4178 7.0579 76.5716 6.67097 75.9527C6.28403 75.3337 7.20101 73.7256 7.48194 73.2548C7.49701 73.2285 7.51677 73.2052 7.54024 73.186C8.07029 72.784 8.60034 72.9797 9.39011 73.4294C9.82474 73.6833 12.8778 75.7305 12.9626 76.8731C12.9673 77.1112 12.9132 77.3467 12.805 77.5589C12.6969 77.7711 12.538 77.9534 12.3425 78.0898C12.0032 78.3659 11.5866 78.5303 11.1499 78.5606ZM7.90597 73.5457C7.37593 74.4609 6.989 75.4395 7.12151 75.6617C7.40773 76.1219 10.6145 77.9047 11.0863 78.0422C11.4283 78.0337 11.7558 77.9022 12.0085 77.6719C12.1339 77.5843 12.2373 77.4691 12.3109 77.3351C12.3844 77.2012 12.4261 77.0522 12.4326 76.8996C12.3849 76.2489 10.2011 74.5032 9.12508 73.879C8.31941 73.3923 8.07029 73.4294 7.90597 73.5457Z" fill="#181925"/>
<path d="M5.89169 77.0897C5.89169 77.0897 5.33514 79.2056 5.81748 79.6447C6.29982 80.0838 9.98364 80.8508 10.4766 80.8402C10.9695 80.8297 11.9978 79.8193 11.6798 79.0046C11.3618 78.19 8.3617 77.1161 7.43942 76.8886C6.51714 76.6612 6.13551 76.7352 5.89169 77.0897Z" fill="white"/>
<path d="M10.4714 81.1044C9.94131 81.1044 6.18858 80.3215 5.64263 79.8401C5.09668 79.3587 5.49422 77.5601 5.64263 77.0205C5.65275 76.9914 5.66516 76.9631 5.67974 76.9359C6.04547 76.4069 6.65502 76.4333 7.5243 76.6397C8.01194 76.756 11.5261 77.8405 11.9396 78.909C12.0139 79.1353 12.031 79.3763 11.9894 79.6108C11.9477 79.8452 11.8487 80.0657 11.7011 80.2527C11.5707 80.4713 11.3957 80.66 11.1875 80.8068C10.9793 80.9535 10.7426 81.0549 10.4926 81.1044H10.4714ZM6.13558 77.2057C5.87056 78.2637 5.80165 79.2793 5.99246 79.4433C6.3953 79.7978 9.98371 80.5965 10.4714 80.5754C10.7988 80.4723 11.0764 80.2518 11.2505 79.9565C11.3457 79.8377 11.412 79.6984 11.4442 79.5497C11.4764 79.401 11.4736 79.2469 11.436 79.0995C11.1975 78.4858 8.60029 77.4437 7.39179 77.1581C6.48541 76.9412 6.25749 77.047 6.13558 77.2057Z" fill="#181925"/>
<path d="M4.87942 80.7923C4.87942 80.7923 4.32287 82.9083 4.80521 83.3473C5.28756 83.7864 8.97138 84.5535 9.46432 84.5429C9.95727 84.5323 10.9856 83.5219 10.6675 82.7073C10.3495 81.8926 7.35473 80.8188 6.42715 80.5913C5.49957 80.3638 5.12324 80.4379 4.87942 80.7923Z" fill="white"/>
<path d="M9.45896 84.807C8.92892 84.807 5.17619 84.0241 4.63024 83.5427C4.08429 83.0613 4.48183 81.2627 4.63024 80.7232C4.64006 80.693 4.65435 80.6645 4.67265 80.6385C5.03308 80.1095 5.64263 80.136 6.51191 80.3423C6.99955 80.4587 10.5138 81.5431 10.9272 82.6117C11.0015 82.8379 11.0186 83.079 10.977 83.3134C10.9354 83.5478 10.8363 83.7683 10.6887 83.9553C10.5583 84.1739 10.3833 84.3627 10.1751 84.5094C9.96695 84.6561 9.73017 84.7575 9.48017 84.807H9.45896ZM5.12319 80.9083C4.85817 81.9663 4.78926 82.982 4.98007 83.146C5.38291 83.5004 8.93952 84.278 9.45366 84.278C9.78688 84.1811 10.071 83.9619 10.2487 83.6644C10.3439 83.5456 10.4102 83.4064 10.4424 83.2577C10.4746 83.109 10.4718 82.9548 10.4343 82.8074C10.1957 82.1938 7.5985 81.1516 6.39 80.866C5.47832 80.6438 5.2451 80.7496 5.12319 80.9083Z" fill="#181925"/>
<path d="M5.35112 84.3576C5.35112 84.3576 4.82108 86.4736 5.27692 86.9127C5.73276 87.3517 9.44308 88.1188 9.93603 88.1135C10.429 88.1082 11.4573 87.0925 11.1445 86.2726C10.8318 85.4526 7.82644 84.3893 6.90416 84.1566C5.98188 83.9238 5.59494 84.0032 5.35112 84.3576Z" fill="white"/>
<path d="M9.93076 88.3778C9.40072 88.3778 5.64799 87.5896 5.10204 87.1135C4.5561 86.6374 4.95363 84.8335 5.10204 84.294C5.11074 84.2634 5.12512 84.2346 5.14445 84.2093C5.50488 83.6803 6.11443 83.7068 6.98371 83.9131C7.47135 84.0295 10.9856 85.1086 11.399 86.1772C11.4733 86.4043 11.4904 86.6462 11.4488 86.8814C11.4072 87.1167 11.3082 87.3381 11.1605 87.5261C11.0301 87.7447 10.8551 87.9335 10.647 88.0802C10.4388 88.2269 10.202 88.3283 9.95197 88.3778H9.93076ZM5.59499 84.4738C5.32997 85.5318 5.26636 86.5528 5.45188 86.7168C5.85471 87.0659 9.41662 87.8488 9.92547 87.8488C10.2537 87.7471 10.5317 87.5263 10.7046 87.2299C10.7999 87.1101 10.8662 86.97 10.8984 86.8204C10.9306 86.6709 10.9278 86.5159 10.8902 86.3676C10.6516 85.7593 8.0544 84.7172 6.8459 84.4262C5.94482 84.1935 5.7169 84.3151 5.59499 84.4738Z" fill="#181925"/>
</svg>
